<svg id="comillas" xmlns="http://www.w3.org/2000/svg" viewBox="0 0 192.68 170"><defs><style>.cls-1{fill:#fff;}</style></defs><title>comillas</title><path class="cls-1" d="M17.25,2.07H71.63S77.3.94,83,7.74s4.53,6.8,4.53,26.06v86.1S83,148.21,64.84,159.54,38.78,172,21.79,172c0,0-6.8-1.13-6.8-17,0-19.26,6.8-18.13,6.8-18.13s11.33,1.13,20.39-6.8,9.06-17,9.06-17V88.17H15s-11.33,0-11.33-14.73V11.13S7.06,2.07,17.25,2.07Z" transform="translate(-3.66 -2)"/><path class="cls-1" d="M126,2.07h54.38s5.66-1.13,11.33,5.66,4.53,6.8,4.53,26.06v86.1s-4.53,28.32-22.66,39.65S147.53,172,130.54,172c0,0-6.8-1.13-6.8-17,0-19.26,6.8-18.13,6.8-18.13s11.33,1.13,20.39-6.8,9.06-17,9.06-17V88.17H123.74s-11.33,0-11.33-14.73V11.13S115.81,2.07,126,2.07Z" transform="translate(-3.66 -2)"/></svg>