<svg id="Capa_1" data-name="Capa 1" xmlns="http://www.w3.org/2000/svg" viewBox="0 0 10.15 20">
	<defs>
		<style>
            #persona {
                width: 20px;
            }
			.cls-1{fill:#a2a2a2;}
		</style>
	</defs>
	<title>
		icono-persona
	</title>
    <g id="persona">
	<circle class="cls-1" cx="5.08" cy="1.64" r="1.64" />
	<path class="cls-1" d="M10.71,10.92c-.46-5.21-2.94-6.25-2.94-6.25a4.58,4.58,0,0,0-4.92.4C1.21,6.56.84,8.83.58,11c-.13,1.11,1.61,1.1,1.74,0a9.74,9.74,0,0,1,1-3.75V19.45a.92.92,0,0,0,.92.94,1,1,0,0,0,1-.94v-6.9h.86v6.92a.87.87,0,0,0,1.74,0V14.62l.07-6.09V7.07A9.36,9.36,0,0,1,9,10.92C9.1,12,10.85,12,10.71,10.92Z" transform="translate(-0.57 -0.39)" />
    </g>
</svg>
