<svg id="pinterest" xmlns="http://www.w3.org/2000/svg" viewBox="0 0 29 29"><defs><style>.cls-1{fill:#fff;}</style></defs><title>icono-pinterest</title><g id="icono"><path class="cls-1" d="M27.6,7.7a15,15,0,0,0-5.3-5.3A14.2,14.2,0,0,0,15,.5,14.2,14.2,0,0,0,7.7,2.4,15,15,0,0,0,2.4,7.7,14.2,14.2,0,0,0,.5,15a14.2,14.2,0,0,0,2.4,8,14.8,14.8,0,0,0,6.3,5.3A10.7,10.7,0,0,1,9.4,25l1.9-7.9a5.6,5.6,0,0,1-.5-2.3,4.6,4.6,0,0,1,.8-2.7,2.6,2.6,0,0,1,2-1.1,1.9,1.9,0,0,1,1.5.6,2.8,2.8,0,0,1,.5,1.6,7.8,7.8,0,0,1-.2,1.4c-.2.6-.4,1.2-.6,2l-.5,1.7a2.3,2.3,0,0,0,.4,2,2.6,2.6,0,0,0,1.9.8,3.8,3.8,0,0,0,3.3-2.2,10.4,10.4,0,0,0,1.3-5.5,5.2,5.2,0,0,0-1.6-4,6.2,6.2,0,0,0-4.4-1.6A6.7,6.7,0,0,0,10,9.9a7,7,0,0,0-2,4.9,3.9,3.9,0,0,0,1,2.8,1,1,0,0,1,.2.9L9,19a3.5,3.5,0,0,1-.1.6.5.5,0,0,1-.7.4A4.1,4.1,0,0,1,6,17.9a7.8,7.8,0,0,1-.8-3.5,7.3,7.3,0,0,1,.4-2.5A8,8,0,0,1,6.9,9.5a8,8,0,0,1,2-2.1,11.3,11.3,0,0,1,2.9-1.5,15,15,0,0,1,3.7-.5,10.2,10.2,0,0,1,4.9,1.2,8.5,8.5,0,0,1,3.2,3,7.4,7.4,0,0,1,1.1,4.1,13.6,13.6,0,0,1-.9,5.1A8.2,8.2,0,0,1,21,22.3a6.7,6.7,0,0,1-4.1,1.3,4.6,4.6,0,0,1-2.1-.5,3,3,0,0,1-1.4-1.3c-.6,2.2-.9,3.6-1,4a17.1,17.1,0,0,1-1.5,3.1,14,14,0,0,0,4.1.6,14.2,14.2,0,0,0,7.3-1.9,15,15,0,0,0,5.3-5.3A14.2,14.2,0,0,0,29.5,15,14.2,14.2,0,0,0,27.6,7.7Z" transform="translate(-0.5 -0.5)"/></g></svg>