<svg id="instagram" xmlns="http://www.w3.org/2000/svg" viewBox="0 0 29 29"><defs><style>.cls-1{fill:#fff;}</style></defs><title>icono-instagram</title><g id="icono"><path class="cls-1" d="M21.5.5H8.5a8,8,0,0,0-8,8v13a8,8,0,0,0,8,8h13a8,8,0,0,0,8-8V8.5A8,8,0,0,0,21.5.5Zm5.4,21a5.4,5.4,0,0,1-5.4,5.4H8.5a5.4,5.4,0,0,1-5.4-5.4V8.5A5.4,5.4,0,0,1,8.5,3.1h13a5.4,5.4,0,0,1,5.4,5.4v13Z" transform="translate(-0.5 -0.5)"/><path class="cls-1" d="M15,7.5A7.5,7.5,0,1,0,22.5,15,7.6,7.6,0,0,0,15,7.5Zm0,12.4A4.9,4.9,0,1,1,19.9,15,4.9,4.9,0,0,1,15,19.9Z" transform="translate(-0.5 -0.5)"/><path class="cls-1" d="M22.8,5.3a1.6,1.6,0,0,0-1.3.6,1.6,1.6,0,0,0-.6,1.3,2,2,0,0,0,.6,1.4,1.9,1.9,0,0,0,2.6,0,2,2,0,0,0,.6-1.4,1.6,1.6,0,0,0-.6-1.3A1.6,1.6,0,0,0,22.8,5.3Z" transform="translate(-0.5 -0.5)"/></g></svg>