<svg id="Capa_1" data-name="Capa 1" xmlns="http://www.w3.org/2000/svg" viewBox="0 0 20 20.29"><defs><style>.cls-1{fill:#a2a2a2;}</style></defs><title>icono-calendario</title><path class="cls-1" d="M15.29,4.52a1.4,1.4,0,0,0,1.41-1.4V1.65a1.41,1.41,0,1,0-2.82,0V3.12A1.41,1.41,0,0,0,15.29,4.52Z" transform="translate(-0.31 -0.24)"/><path class="cls-1" d="M20.29,2.68H17.46v.71a2.15,2.15,0,0,1-4.29,0V2.68H7.46v.71a2.15,2.15,0,0,1-4.29,0V2.68l-2.86,0V20.53h20ZM18.88,19.11H1.74V7.68H18.88V19.11Z" transform="translate(-0.31 -0.24)"/><path class="cls-1" d="M5.29,4.52A1.4,1.4,0,0,0,6.7,3.12V1.65a1.41,1.41,0,1,0-2.81,0V3.12A1.39,1.39,0,0,0,5.29,4.52Z" transform="translate(-0.31 -0.24)"/><rect class="cls-1" x="7.15" y="8.97" width="2.25" height="1.99"/><rect class="cls-1" x="10.79" y="8.97" width="2.25" height="1.99"/><rect class="cls-1" x="14.16" y="8.97" width="2.25" height="1.99"/><rect class="cls-1" x="7.15" y="12.27" width="2.25" height="1.99"/><rect class="cls-1" x="10.79" y="12.27" width="2.25" height="1.99"/><rect class="cls-1" x="14.16" y="12.27" width="2.25" height="1.99"/><rect class="cls-1" x="7.15" y="15.63" width="2.25" height="1.99"/><rect class="cls-1" x="3.57" y="12.27" width="2.25" height="1.99"/><rect class="cls-1" x="3.57" y="15.63" width="2.25" height="1.99"/><rect class="cls-1" x="10.79" y="15.63" width="2.25" height="1.99"/><rect class="cls-1" x="14.16" y="15.63" width="2.25" height="1.99"/></svg>