<svg id="twitter" xmlns="http://www.w3.org/2000/svg" viewBox="0 0 29 23.6"><defs><style>.cls-1{fill:#fff;}</style></defs><title>icono-twiiter</title><g id="icono"><path class="cls-1" d="M29.5,6.4a13.3,13.3,0,0,1-3.4,1,6.6,6.6,0,0,0,2.6-3.3,12.4,12.4,0,0,1-3.8,1.4,5.7,5.7,0,0,0-4.3-1.9,6,6,0,0,0-6,6,5.9,5.9,0,0,0,.2,1.3A16.8,16.8,0,0,1,2.5,4.7a6.1,6.1,0,0,0-.8,3,6.2,6.2,0,0,0,2.6,5,6.1,6.1,0,0,1-2.6-.8h0a5.8,5.8,0,0,0,4.7,5.8,3.9,3.9,0,0,1-1.5.2H3.7a6.1,6.1,0,0,0,5.6,4.2,12.4,12.4,0,0,1-7.4,2.5H.5a16.8,16.8,0,0,0,9.1,2.7c11,0,16.9-9.1,16.9-16.9V9.5A11.1,11.1,0,0,0,29.5,6.4Z" transform="translate(-0.5 -3.6)"/></g></svg>