<svg id="Capa_1" data-name="Capa 1" xmlns="http://www.w3.org/2000/svg" viewBox="0 0 20 19.81"><defs><style>.cls-1{fill:#a2a2a2;}</style></defs><title>icono-nombre</title><path class="cls-1" d="M10.25,10.76c2.48,0,4.48-2.35,4.48-5.25,0-4-2-5.25-4.48-5.25S5.77,1.49,5.77,5.51C5.77,8.41,7.77,10.76,10.25,10.76Z" transform="translate(-0.25 -0.26)"/><path class="cls-1" d="M20.15,18.48l-2.26-5.09a1.14,1.14,0,0,0-.51-.55L13.87,11a.23.23,0,0,0-.24,0,5.54,5.54,0,0,1-6.76,0,.23.23,0,0,0-.24,0L3.12,12.84a1.14,1.14,0,0,0-.51.55L.35,18.48a1.12,1.12,0,0,0,.08,1.08,1.14,1.14,0,0,0,1,.51H19.12a1.14,1.14,0,0,0,.95-.51A1.12,1.12,0,0,0,20.15,18.48Z" transform="translate(-0.25 -0.26)"/></svg>