<svg id="views" xmlns="http://www.w3.org/2000/svg" viewBox="0 0 19 12.21"><defs><style>.cls-1{fill:#616f7d;}</style></defs><title>icono-views</title><path class="cls-1" d="M19.29,5.77a11.32,11.32,0,0,0-4-3.9,10.25,10.25,0,0,0-10.59,0,11.32,11.32,0,0,0-4,3.9,1.37,1.37,0,0,0,0,1.46,11.32,11.32,0,0,0,4,3.9A10.29,10.29,0,0,0,10,12.61a10.32,10.32,0,0,0,5.3-1.47,11.25,11.25,0,0,0,4-3.91,1.37,1.37,0,0,0,0-1.46ZM7.73,2.87A3.1,3.1,0,0,1,10,1.92a.51.51,0,0,1,.51.51.51.51,0,0,1-.51.51A2.21,2.21,0,0,0,7.79,5.14a.51.51,0,1,1-1,0A3.1,3.1,0,0,1,7.73,2.87ZM14.61,10a8.88,8.88,0,0,1-9.21,0A10.94,10.94,0,0,1,1.86,6.5a10.42,10.42,0,0,1,4-3.74,4.63,4.63,0,0,0-.65,2.39A4.57,4.57,0,0,0,6.64,8.5,4.57,4.57,0,0,0,10,9.89,4.58,4.58,0,0,0,13.36,8.5a4.57,4.57,0,0,0,1.39-3.36,4.63,4.63,0,0,0-.65-2.39,10.42,10.42,0,0,1,4,3.74A10.94,10.94,0,0,1,14.61,10Z" transform="translate(-0.5 -0.39)"/></svg>