<svg id="logo" xmlns="http://www.w3.org/2000/svg" viewBox="0 0 199.61 174.57"><defs><style>.cls-1{fill:#f9ca04;}.cls-2{fill:#070707;}.cls-3{fill:#090909;}.cls-4{fill:#fdfdfd;}.cls-5{fill:#fdd404;}.cls-6{fill:#fdd626;}</style></defs><title>alter-logo</title><path d="M83.89,78.34a182.26,182.26,0,0,0,11.25-44c.07-.52.06-1,.1-1.57.43-5.31,1.72-7.17,5-6.88,4.48.38,3.64,3.94,3.93,6.84a178,178,0,0,0,11.16,45.61c2.76,3.44,3.69,7.73,5.35,11.66a150.32,150.32,0,0,0,20.42,34.19c1,1.23,2.08,2.36,2.39,4a163.74,163.74,0,0,0,30.19,27.93c2,1.45,4.17,2.73,5.78,4.68,1,1.19,1.5,2.49.52,3.93s-2.25,2.31-4,1.81a38.66,38.66,0,0,1-4.77-1.8,166.45,166.45,0,0,0-27.38-9.53c-2,1-3.84.1-5.7-.34-10.42-2.46-20.92-4.29-31.67-4.35-4.24-.09-8.48,0-12.72,0-10.68.07-21.11,1.92-31.49,4.25-2,.45-4,1.37-6.14.47a173.71,173.71,0,0,0-27,9.38c-1.44.62-2.88,1.24-4.35,1.78A3.56,3.56,0,0,1,20.33,165c-1.16-1.65-.71-3.22.45-4.66,1.74-2.16,4-3.71,6.17-5.43a207.21,207.21,0,0,0,29.49-29.2,17.69,17.69,0,0,1,2.09-3.76A151.32,151.32,0,0,0,81.86,81.65,8.63,8.63,0,0,1,83.89,78.34Z" transform="translate(-0.19 -1.72)"/><path class="cls-1" d="M106.73,149.42c12.67.07,25,2.36,37.15,5.79,0,2.62-.2,5.26,0,7.87s-.7,3.12-3.1,3.09c-8.66-.13-17.32-.05-26-.05-18.37,0-36.73-.06-55.1.06-2.72,0-3.76-.67-3.51-3.48a74.42,74.42,0,0,0,0-7.47c12.17-3.38,24.51-5.75,37.2-5.8A51,51,0,0,0,106.73,149.42Z" transform="translate(-0.19 -1.72)"/><path class="cls-1" d="M143.52,128.18c-12-13-20.05-28.33-26.46-44.64-.67-1.69-1.13-3.46-1.69-5.2,8.5,0,17,0,25.51-.08,1.76,0,2.94.11,2.92,2.44C143.64,96.54,143.6,112.36,143.52,128.18Z" transform="translate(-0.19 -1.72)"/><path class="cls-1" d="M83.89,78.34a136.77,136.77,0,0,1-27.44,47.31c0-14.82,0-29.63-.2-44.45,0-2.62,1-3,3.24-3C67.62,78.37,75.76,78.32,83.89,78.34Z" transform="translate(-0.19 -1.72)"/><path class="cls-2" d="M95.91,16.57l4.15-14.86a107.13,107.13,0,0,1,4.06,14.82C101,14.09,98.52,14.77,95.91,16.57Z" transform="translate(-0.19 -1.72)"/><path class="cls-3" d="M190,166.37l9.85,9-.36.79-12.87-2.66C188.54,171.6,191.19,169.9,190,166.37Z" transform="translate(-0.19 -1.72)"/><path class="cls-3" d="M10,166.55c-.36,3.31.92,5.23,4.19,6.79L.63,176.28l-.44-.75Z" transform="translate(-0.19 -1.72)"/><path class="cls-4" d="M151.5,147.64A208.7,208.7,0,0,0,99.61,141a185,185,0,0,0-52.71,7.71C73.62,122.63,91.08,92.29,100,56c2.66,9.19,5,17.48,8.18,25.51a192.31,192.31,0,0,0,11.47,24.12,184,184,0,0,0,14.63,21.92C139.64,134.47,145.49,141,151.5,147.64Z" transform="translate(-0.19 -1.72)"/><path class="cls-5" d="M106.73,149.42a25.35,25.35,0,0,1-13.38,0Z" transform="translate(-0.19 -1.72)"/><path class="cls-6" d="M89.11,123.25c5.42-5.48,8.8-11.87,10.94-20a48.38,48.38,0,0,0,9.76,19C102.77,121.62,95.94,120.84,89.11,123.25Z" transform="translate(-0.19 -1.72)"/></svg>