<svg id="envios" xmlns="http://www.w3.org/2000/svg" viewBox="0 0 151 151"><defs><style>.cls-1{fill:none;stroke:#ccc;stroke-miterlimit:10;stroke-dasharray:5.01 5.01;}.cls-2{fill:#fefefe;}.cls-3{fill:#f0602b;}.cls-4{fill:#f0612c;}.cls-5{fill:#f0602c;}</style></defs><title>servicio-envio</title><g id="circulo"><circle class="cls-1" cx="75.5" cy="75.5" r="75"/></g><g id="icono"><path class="cls-2" d="M53.3,53.4a1.7,1.7,0,0,0-1.5-1.9,1.7,1.7,0,0,0-1.7,1.9,41.7,41.7,0,0,1,0,5c0,.7.3,1.7-1,1.6s-.9-1-.9-1.7,0-3.4-.1-5.1a1.5,1.5,0,0,0-1.6-1.6c-1,0-1.4.7-1.4,1.7a48.9,48.9,0,0,0-.3,5.4c.1.7.1,1.3-.8,1.3s-1-.6-1-1.3-.2-3.4-.2-5-.2-2.2-1.4-2.2-1.6,1.1-1.6,2.2v9.5a4.9,4.9,0,0,0,3.9,5.1c1,.2,1.2.8,1.1,1.7v6.1c.1,2.2-.2,4.3.3,6.5a1.4,1.4,0,0,0,1.5,1.2c.8.1,1.1-.4,1.3-1.1a8.9,8.9,0,0,0,.3-2.2V69.9c0-1,.3-1.4,1.2-1.6s3.8-2,3.8-4.5S53.2,56.9,53.3,53.4ZM49.1,65a17.4,17.4,0,0,1-5.1-.1.9.9,0,0,1-.8-1.1c.1-.5.6-.6,1-.6h4.7c.4.1.9.1,1,.7A1.1,1.1,0,0,1,49.1,65Z" transform="translate(-0.5)"/><path class="cls-2" d="M66.8,71.2l-.6-3.1c-.7-4.4-1.4-8.9-2.2-13.3-.4-2.3-1.9-3.5-3.8-3.4A4,4,0,0,0,57,55.6c-.1,4.2,0,8.3,0,12.5s-.1,6.2,0,9.3a27.9,27.9,0,0,0,.1,5c.2.8.6,1.5,1.5,1.4s1.5-.7,1.5-1.6.1-2.4.2-3.5c.2-3,.2-3,3.2-3.4S67,73.6,66.8,71.2Zm-4.3.9c-.9-.1-2.2.5-2.2-1-.1-5,0-10,0-15.3,1.2.8.8,1.8,1,2.7.8,4,1.5,8.1,2.2,12.2C63.6,71.5,63.5,72.2,62.5,72.1Z" transform="translate(-0.5)"/><path class="cls-2" d="M98.1,89.3c.1,1.4-1.1,1.5-2.1,1.5H58.2a1.3,1.3,0,0,1-1.1-1.4,1.5,1.5,0,0,1,1.2-1.5H95.8C97,87.7,98.1,87.9,98.1,89.3Z" transform="translate(-0.5)"/><path class="cls-2" d="M108.8,93.2a3.1,3.1,0,0,0-3.2,2.9,3,3,0,0,0,3,3.1,3,3,0,1,0,.2-6Zm0,0a3.1,3.1,0,0,0-3.2,2.9,3,3,0,0,0,3,3.1,3,3,0,1,0,.2-6Zm-62.2,0a3,3,0,0,0-3.1,2.7,3.3,3.3,0,0,0,3.1,3.5,3.3,3.3,0,0,0,3-3.1A3,3,0,0,0,46.6,93.2Zm62.2,0a3.1,3.1,0,0,0-3.2,2.9,3,3,0,0,0,3,3.1,3,3,0,1,0,.2-6Zm0,0a3.1,3.1,0,0,0-3.2,2.9,3,3,0,0,0,3,3.1,3,3,0,1,0,.2-6Zm-62.2,0a3,3,0,0,0-3.1,2.7,3.3,3.3,0,0,0,3.1,3.5,3.3,3.3,0,0,0,3-3.1A3,3,0,0,0,46.6,93.2Zm0,0a3,3,0,0,0-3.1,2.7,3.3,3.3,0,0,0,3.1,3.5,3.3,3.3,0,0,0,3-3.1A3,3,0,0,0,46.6,93.2Zm62.2,0a3.1,3.1,0,0,0-3.2,2.9,3,3,0,0,0,3,3.1,3,3,0,1,0,.2-6Zm0,0a3.1,3.1,0,0,0-3.2,2.9,3,3,0,0,0,3,3.1,3,3,0,1,0,.2-6Zm-62.2,0a3,3,0,0,0-3.1,2.7,3.3,3.3,0,0,0,3.1,3.5,3.3,3.3,0,0,0,3-3.1A3,3,0,0,0,46.6,93.2ZM126,80a7.9,7.9,0,0,0-5.1-7.8l-8.7-3.8a5.6,5.6,0,0,1-3.4-3.3c-2.5-5.6-5-11-7.6-16.5a6.9,6.9,0,0,0-6.7-4.1c-10.4.1-20.9,0-31.3,0H31.4c-3.3,0-5.2,1.9-5.2,5.2,0,.9-.2,1.8-.2,2.7.1,13.6-.2,27.2.2,40.8a4.4,4.4,0,0,0,3.1,4.2,13,13,0,0,0,4.8.3c1.7-.2,2.4.4,3,2a10,10,0,0,0,9.6,6.7c4.1-.2,8.3-2.8,9.5-7.1a1.8,1.8,0,0,1,2.1-1.6c12.8.1,25.7,0,38.6,0,1.2,0,1.7.4,2.1,1.6a10.1,10.1,0,0,0,11.5,6.8,9.7,9.7,0,0,0,7.7-6.5c.4-.9.5-1.9,1.9-1.9,3.8-.1,5.9-2.3,5.9-6Zm-4.5-3.2c1.4.2.8,1.5,1,2.4s-.1,1.8-1.5,1.6-2.1.5-2.1-1.2S120.5,76.6,121.5,76.8ZM100.4,56.5a1.5,1.5,0,0,1,1.5,1.1l3.6,7.8c.5,1.1.3,1.6-1,1.6H92.7c-.9,0-1.2-.3-1.3-1.2a76.6,76.6,0,0,1,0-8.3c.1-.7.3-1,1-1ZM46.5,103.1a7,7,0,1,1,.2-13.9,7,7,0,0,1,6.8,7.2A6.8,6.8,0,0,1,46.5,103.1Zm69.1-6.9c-.1,4.1-2.9,7-7,6.9a6.7,6.7,0,0,1-6.8-7,6.9,6.9,0,0,1,6.9-6.9C111.8,89.1,115.9,91.9,115.6,96.2Zm5.6-5.4c.6,0,1.1.1,1.2.7a2.6,2.6,0,0,1-.3,2.4c-.7.8-1.7.6-2.7.6s-.8-.7-1-1.3a10,10,0,0,0-9.6-7.1A9.8,9.8,0,0,0,99.1,93a2,2,0,0,1-2.3,1.5H58.4c-1.1,0-1.9-.1-2.2-1.4a10,10,0,0,0-9-7c-4.4-.2-8.6,2.1-10,6.2-.6,2-1.6,2.4-3.4,2.2H31.3c-1.5,0-2.1-.7-2.1-2.2s1-1.5,2.1-1.5h3.1a1.4,1.4,0,0,0,1.5-1.5,1.4,1.4,0,0,0-1.4-1.5H30.7c-1,0-1.5-.3-1.5-1.5V50.3c0-1.9.8-2.6,2.8-2.6H72.2l22.6.2c2.2,0,4.7,2.5,4.7,4.6s-.8.6-1.3.6h-13c-2.5,0-3.6.8-3.9,3.3a29.4,29.4,0,0,0,.3,8.9c.5,2.7,3.5,4.7,6.9,4.7,5.4.1,10.9.2,16.3.1a13.9,13.9,0,0,1,6.7,1.4c1.8.9,3.7,1.6,5.5,2.4s1.2.7.4,1.4-1.7,4.6-1.6,7.1a1.5,1.5,0,0,0,1.7,1.4h3.7c1.6-.1,1.4,1,1.3,1.9s.4,2-1.2,2-2.1.3-2.1,1.5S120.2,90.8,121.2,90.8ZM84.3,57.9c0-1.4.8-1.6,1.9-1.7s1.9.3,1.9,1.6-.1,3.7-.1,5.6h.3c-.1.7-.1,1.3-.2,2s-.9,1.8-2.1.9a4.3,4.3,0,0,1-1.7-3.6Zm24.5,35.3a3.1,3.1,0,0,0-3.2,2.9,3,3,0,0,0,3,3.1,3,3,0,1,0,.2-6Zm-62.2,0a3,3,0,0,0-3.1,2.7,3.3,3.3,0,0,0,3.1,3.5,3.3,3.3,0,0,0,3-3.1A3,3,0,0,0,46.6,93.2Zm0,0a3,3,0,0,0-3.1,2.7,3.3,3.3,0,0,0,3.1,3.5,3.3,3.3,0,0,0,3-3.1A3,3,0,0,0,46.6,93.2Zm62.2,0a3.1,3.1,0,0,0-3.2,2.9,3,3,0,0,0,3,3.1,3,3,0,1,0,.2-6Zm0,0a3.1,3.1,0,0,0-3.2,2.9,3,3,0,0,0,3,3.1,3,3,0,1,0,.2-6Zm-62.2,0a3,3,0,0,0-3.1,2.7,3.3,3.3,0,0,0,3.1,3.5,3.3,3.3,0,0,0,3-3.1A3,3,0,0,0,46.6,93.2Zm62.2,0a3.1,3.1,0,0,0-3.2,2.9,3,3,0,0,0,3,3.1,3,3,0,1,0,.2-6Zm-62.2,0a3,3,0,0,0-3.1,2.7,3.3,3.3,0,0,0,3.1,3.5,3.3,3.3,0,0,0,3-3.1A3,3,0,0,0,46.6,93.2Zm62.2,0a3.1,3.1,0,0,0-3.2,2.9,3,3,0,0,0,3,3.1,3,3,0,1,0,.2-6Zm-62.2,0a3,3,0,0,0-3.1,2.7,3.3,3.3,0,0,0,3.1,3.5,3.3,3.3,0,0,0,3-3.1A3,3,0,0,0,46.6,93.2Z" transform="translate(-0.5)"/><path class="cls-3" d="M53.3,53.4a1.7,1.7,0,0,0-1.5-1.9,1.7,1.7,0,0,0-1.7,1.9,41.7,41.7,0,0,1,0,5c0,.7.3,1.7-1,1.6s-.9-1-.9-1.7,0-3.4-.1-5.1a1.5,1.5,0,0,0-1.6-1.6c-1,0-1.4.7-1.4,1.7a48.9,48.9,0,0,0-.3,5.4c.1.7.1,1.3-.8,1.3s-1-.6-1-1.3-.2-3.4-.2-5-.2-2.2-1.4-2.2-1.6,1.1-1.6,2.2v9.5a4.9,4.9,0,0,0,3.9,5.1c1,.2,1.2.8,1.1,1.7v6.1c.1,2.2-.2,4.3.3,6.5a1.4,1.4,0,0,0,1.5,1.2c.8.1,1.1-.4,1.3-1.1a8.9,8.9,0,0,0,.3-2.2V69.9c0-1,.3-1.4,1.2-1.6s3.8-2,3.8-4.5S53.2,56.9,53.3,53.4ZM49.1,65a17.4,17.4,0,0,1-5.1-.1.9.9,0,0,1-.8-1.1c.1-.5.6-.6,1-.6h4.7c.4.1.9.1,1,.7A1.1,1.1,0,0,1,49.1,65Z" transform="translate(-0.5)"/><path class="cls-3" d="M66.8,71.2l-.6-3.1c-.7-4.4-1.4-8.9-2.2-13.3-.4-2.3-1.9-3.5-3.8-3.4A4,4,0,0,0,57,55.6c-.1,4.2,0,8.3,0,12.5s-.1,6.2,0,9.3a27.9,27.9,0,0,0,.1,5c.2.8.6,1.5,1.5,1.4s1.5-.7,1.5-1.6.1-2.4.2-3.5c.2-3,.2-3,3.2-3.4S67,73.6,66.8,71.2Zm-4.3.9c-.9-.1-2.2.5-2.2-1-.1-5,0-10,0-15.3,1.2.8.8,1.8,1,2.7.8,4,1.5,8.1,2.2,12.2C63.6,71.5,63.5,72.2,62.5,72.1Z" transform="translate(-0.5)"/><path class="cls-3" d="M98.1,89.3c.1,1.4-1.1,1.5-2.1,1.5H58.2a1.3,1.3,0,0,1-1.1-1.4,1.5,1.5,0,0,1,1.2-1.5H95.8C97,87.7,98.1,87.9,98.1,89.3Z" transform="translate(-0.5)"/><path class="cls-3" d="M108.8,93.2a3.1,3.1,0,0,0-3.2,2.9,3,3,0,0,0,3,3.1,3,3,0,1,0,.2-6Zm0,0a3.1,3.1,0,0,0-3.2,2.9,3,3,0,0,0,3,3.1,3,3,0,1,0,.2-6Zm-62.2,0a3,3,0,0,0-3.1,2.7,3.3,3.3,0,0,0,3.1,3.5,3.3,3.3,0,0,0,3-3.1A3,3,0,0,0,46.6,93.2Zm62.2,0a3.1,3.1,0,0,0-3.2,2.9,3,3,0,0,0,3,3.1,3,3,0,1,0,.2-6Zm0,0a3.1,3.1,0,0,0-3.2,2.9,3,3,0,0,0,3,3.1,3,3,0,1,0,.2-6Zm-62.2,0a3,3,0,0,0-3.1,2.7,3.3,3.3,0,0,0,3.1,3.5,3.3,3.3,0,0,0,3-3.1A3,3,0,0,0,46.6,93.2Zm0,0a3,3,0,0,0-3.1,2.7,3.3,3.3,0,0,0,3.1,3.5,3.3,3.3,0,0,0,3-3.1A3,3,0,0,0,46.6,93.2Zm62.2,0a3.1,3.1,0,0,0-3.2,2.9,3,3,0,0,0,3,3.1,3,3,0,1,0,.2-6Zm0,0a3.1,3.1,0,0,0-3.2,2.9,3,3,0,0,0,3,3.1,3,3,0,1,0,.2-6Zm-62.2,0a3,3,0,0,0-3.1,2.7,3.3,3.3,0,0,0,3.1,3.5,3.3,3.3,0,0,0,3-3.1A3,3,0,0,0,46.6,93.2ZM126,80a7.9,7.9,0,0,0-5.1-7.8l-8.7-3.8a5.6,5.6,0,0,1-3.4-3.3c-2.5-5.6-5-11-7.6-16.5a6.9,6.9,0,0,0-6.7-4.1c-10.4.1-20.9,0-31.3,0H31.4c-3.3,0-5.2,1.9-5.2,5.2,0,.9-.2,1.8-.2,2.7.1,13.6-.2,27.2.2,40.8a4.4,4.4,0,0,0,3.1,4.2,13,13,0,0,0,4.8.3c1.7-.2,2.4.4,3,2a10,10,0,0,0,9.6,6.7c4.1-.2,8.3-2.8,9.5-7.1a1.8,1.8,0,0,1,2.1-1.6c12.8.1,25.7,0,38.6,0,1.2,0,1.7.4,2.1,1.6a10.1,10.1,0,0,0,11.5,6.8,9.7,9.7,0,0,0,7.7-6.5c.4-.9.5-1.9,1.9-1.9,3.8-.1,5.9-2.3,5.9-6Zm-4.5-3.2c1.4.2.8,1.5,1,2.4s-.1,1.8-1.5,1.6-2.1.5-2.1-1.2S120.5,76.6,121.5,76.8ZM100.4,56.5a1.5,1.5,0,0,1,1.5,1.1l3.6,7.8c.5,1.1.3,1.6-1,1.6H92.7c-.9,0-1.2-.3-1.3-1.2a76.6,76.6,0,0,1,0-8.3c.1-.7.3-1,1-1ZM46.5,103.1a7,7,0,1,1,.2-13.9,7,7,0,0,1,6.8,7.2A6.8,6.8,0,0,1,46.5,103.1Zm69.1-6.9c-.1,4.1-2.9,7-7,6.9a6.7,6.7,0,0,1-6.8-7,6.9,6.9,0,0,1,6.9-6.9C111.8,89.1,115.9,91.9,115.6,96.2Zm5.6-5.4c.6,0,1.1.1,1.2.7a2.6,2.6,0,0,1-.3,2.4c-.7.8-1.7.6-2.7.6s-.8-.7-1-1.3a10,10,0,0,0-9.6-7.1A9.8,9.8,0,0,0,99.1,93a2,2,0,0,1-2.3,1.5H58.4c-1.1,0-1.9-.1-2.2-1.4a10,10,0,0,0-9-7c-4.4-.2-8.6,2.1-10,6.2-.6,2-1.6,2.4-3.4,2.2H31.3c-1.5,0-2.1-.7-2.1-2.2s1-1.5,2.1-1.5h3.1a1.4,1.4,0,0,0,1.5-1.5,1.4,1.4,0,0,0-1.4-1.5H30.7c-1,0-1.5-.3-1.5-1.5V50.3c0-1.9.8-2.6,2.8-2.6H72.2l22.6.2c2.2,0,4.7,2.5,4.7,4.6s-.8.6-1.3.6h-13c-2.5,0-3.6.8-3.9,3.3a29.4,29.4,0,0,0,.3,8.9c.5,2.7,3.5,4.7,6.9,4.7,5.4.1,10.9.2,16.3.1a13.9,13.9,0,0,1,6.7,1.4c1.8.9,3.7,1.6,5.5,2.4s1.2.7.4,1.4-1.7,4.6-1.6,7.1a1.5,1.5,0,0,0,1.7,1.4h3.7c1.6-.1,1.4,1,1.3,1.9s.4,2-1.2,2-2.1.3-2.1,1.5S120.2,90.8,121.2,90.8ZM84.3,57.9c0-1.4.8-1.6,1.9-1.7s1.9.3,1.9,1.6-.1,3.7-.1,5.6h.3c-.1.7-.1,1.3-.2,2s-.9,1.8-2.1.9a4.3,4.3,0,0,1-1.7-3.6Zm24.5,35.3a3.1,3.1,0,0,0-3.2,2.9,3,3,0,0,0,3,3.1,3,3,0,1,0,.2-6Zm-62.2,0a3,3,0,0,0-3.1,2.7,3.3,3.3,0,0,0,3.1,3.5,3.3,3.3,0,0,0,3-3.1A3,3,0,0,0,46.6,93.2Zm0,0a3,3,0,0,0-3.1,2.7,3.3,3.3,0,0,0,3.1,3.5,3.3,3.3,0,0,0,3-3.1A3,3,0,0,0,46.6,93.2Zm62.2,0a3.1,3.1,0,0,0-3.2,2.9,3,3,0,0,0,3,3.1,3,3,0,1,0,.2-6Zm0,0a3.1,3.1,0,0,0-3.2,2.9,3,3,0,0,0,3,3.1,3,3,0,1,0,.2-6Zm-62.2,0a3,3,0,0,0-3.1,2.7,3.3,3.3,0,0,0,3.1,3.5,3.3,3.3,0,0,0,3-3.1A3,3,0,0,0,46.6,93.2Zm0,0a3,3,0,0,0-3.1,2.7,3.3,3.3,0,0,0,3.1,3.5,3.3,3.3,0,0,0,3-3.1A3,3,0,0,0,46.6,93.2Zm62.2,0a3.1,3.1,0,0,0-3.2,2.9,3,3,0,0,0,3,3.1,3,3,0,1,0,.2-6Zm0,0a3.1,3.1,0,0,0-3.2,2.9,3,3,0,0,0,3,3.1,3,3,0,1,0,.2-6Zm-62.2,0a3,3,0,0,0-3.1,2.7,3.3,3.3,0,0,0,3.1,3.5,3.3,3.3,0,0,0,3-3.1A3,3,0,0,0,46.6,93.2Z" transform="translate(-0.5)"/><path class="cls-2" d="M53.3,53.4a1.7,1.7,0,0,0-1.5-1.9,1.7,1.7,0,0,0-1.7,1.9,41.7,41.7,0,0,1,0,5c0,.7.3,1.7-1,1.6s-.9-1-.9-1.7,0-3.4-.1-5.1a1.5,1.5,0,0,0-1.6-1.6c-1,0-1.4.7-1.4,1.7a48.9,48.9,0,0,0-.3,5.4c.1.7.1,1.3-.8,1.3s-1-.6-1-1.3-.2-3.4-.2-5-.2-2.2-1.4-2.2-1.6,1.1-1.6,2.2v9.5a4.9,4.9,0,0,0,3.9,5.1c1,.2,1.2.8,1.1,1.7v6.1c.1,2.2-.2,4.3.3,6.5a1.4,1.4,0,0,0,1.5,1.2c.8.1,1.1-.4,1.3-1.1a8.9,8.9,0,0,0,.3-2.2V69.9c0-1,.3-1.4,1.2-1.6s3.8-2,3.8-4.5S53.2,56.9,53.3,53.4ZM49.1,65a17.4,17.4,0,0,1-5.1-.1.9.9,0,0,1-.8-1.1c.1-.5.6-.6,1-.6h4.7c.4.1.9.1,1,.7A1.1,1.1,0,0,1,49.1,65Z" transform="translate(-0.5)"/><path class="cls-2" d="M66.8,71.2l-.6-3.1c-.7-4.4-1.4-8.9-2.2-13.3-.4-2.3-1.9-3.5-3.8-3.4A4,4,0,0,0,57,55.6c-.1,4.2,0,8.3,0,12.5s-.1,6.2,0,9.3a27.9,27.9,0,0,0,.1,5c.2.8.6,1.5,1.5,1.4s1.5-.7,1.5-1.6.1-2.4.2-3.5c.2-3,.2-3,3.2-3.4S67,73.6,66.8,71.2Zm-4.3.9c-.9-.1-2.2.5-2.2-1-.1-5,0-10,0-15.3,1.2.8.8,1.8,1,2.7.8,4,1.5,8.1,2.2,12.2C63.6,71.5,63.5,72.2,62.5,72.1Z" transform="translate(-0.5)"/><path class="cls-2" d="M98.1,89.3c.1,1.4-1.1,1.5-2.1,1.5H58.2a1.3,1.3,0,0,1-1.1-1.4,1.5,1.5,0,0,1,1.2-1.5H95.8C97,87.7,98.1,87.9,98.1,89.3Z" transform="translate(-0.5)"/><path class="cls-2" d="M49.6,96.3a3.3,3.3,0,0,1-3,3.1,3.3,3.3,0,0,1-3.1-3.5,3,3,0,0,1,3.1-2.7A3,3,0,0,1,49.6,96.3Z" transform="translate(-0.5)"/><path class="cls-2" d="M111.8,96.1a3.1,3.1,0,0,1-3.2,3.1,3,3,0,0,1-3-3.1,3.1,3.1,0,0,1,3.2-2.9A3.1,3.1,0,0,1,111.8,96.1Z" transform="translate(-0.5)"/><path class="cls-3" d="M53.3,53.4a1.7,1.7,0,0,0-1.5-1.9,1.7,1.7,0,0,0-1.7,1.9,41.7,41.7,0,0,1,0,5c0,.7.3,1.7-1,1.6s-.9-1-.9-1.7,0-3.4-.1-5.1a1.5,1.5,0,0,0-1.6-1.6c-1,0-1.4.7-1.4,1.7a48.9,48.9,0,0,0-.3,5.4c.1.7.1,1.3-.8,1.3s-1-.6-1-1.3-.2-3.4-.2-5-.2-2.2-1.4-2.2-1.6,1.1-1.6,2.2v9.5a4.9,4.9,0,0,0,3.9,5.1c1,.2,1.2.8,1.1,1.7v6.1c.1,2.2-.2,4.3.3,6.5a1.4,1.4,0,0,0,1.5,1.2c.8.1,1.1-.4,1.3-1.1a8.9,8.9,0,0,0,.3-2.2V69.9c0-1,.3-1.4,1.2-1.6s3.8-2,3.8-4.5S53.2,56.9,53.3,53.4ZM49.1,65a17.4,17.4,0,0,1-5.1-.1.9.9,0,0,1-.8-1.1c.1-.5.6-.6,1-.6h4.7c.4.1.9.1,1,.7A1.1,1.1,0,0,1,49.1,65Z" transform="translate(-0.5)"/><path class="cls-3" d="M66.8,71.2l-.6-3.1c-.7-4.4-1.4-8.9-2.2-13.3-.4-2.3-1.9-3.5-3.8-3.4A4,4,0,0,0,57,55.6c-.1,4.2,0,8.3,0,12.5s-.1,6.2,0,9.3a27.9,27.9,0,0,0,.1,5c.2.8.6,1.5,1.5,1.4s1.5-.7,1.5-1.6.1-2.4.2-3.5c.2-3,.2-3,3.2-3.4S67,73.6,66.8,71.2Zm-4.3.9c-.9-.1-2.2.5-2.2-1-.1-5,0-10,0-15.3,1.2.8.8,1.8,1,2.7.8,4,1.5,8.1,2.2,12.2C63.6,71.5,63.5,72.2,62.5,72.1Z" transform="translate(-0.5)"/><path class="cls-3" d="M98.1,89.3c.1,1.4-1.1,1.5-2.1,1.5H58.2a1.3,1.3,0,0,1-1.1-1.4,1.5,1.5,0,0,1,1.2-1.5H95.8C97,87.7,98.1,87.9,98.1,89.3Z" transform="translate(-0.5)"/><path class="cls-4" d="M49.6,96.3a3.3,3.3,0,0,1-3,3.1,3.3,3.3,0,0,1-3.1-3.5,3,3,0,0,1,3.1-2.7A3,3,0,0,1,49.6,96.3Z" transform="translate(-0.5)"/><path class="cls-5" d="M111.8,96.1a3.1,3.1,0,0,1-3.2,3.1,3,3,0,0,1-3-3.1,3.1,3.1,0,0,1,3.2-2.9A3.1,3.1,0,0,1,111.8,96.1Z" transform="translate(-0.5)"/></g></svg>