<?xml version="1.0" encoding="utf-8"?>
<!-- Generator: Adobe Illustrator 24.0.0, SVG Export Plug-In . SVG Version: 6.00 Build 0)  -->
<svg version="1.1" id="Capa_1" xmlns="http://www.w3.org/2000/svg" xmlns:xlink="http://www.w3.org/1999/xlink" x="0px" y="0px"
	 viewBox="0 0 429.9 429.9" style="enable-background:new 0 0 429.9 429.9;" xml:space="preserve">
<style type="text/css">
	.st0{fill:#FFFFFF;}
</style>
<g>
	<path class="st0" d="M228.2,65.3c20,6.8,36.6,26.8,44.8,38.2c13.2,18.4,23.8,40.8,30.8,64.8c1.6,5.5,6.6,9,12,9
		c1.2,0,2.3-0.2,3.5-0.5c6.6-1.9,10.4-8.9,8.5-15.5c-7.8-26.6-19.7-51.6-34.5-72.3c-12.1-16.9-31.7-38.8-57.1-47.3
		c-6.5-2.2-13.6,1.3-15.8,7.9C218.1,56,221.6,63.1,228.2,65.3L228.2,65.3z"/>
	<path class="st0" d="M396.2,187.4c-1-6.5-6.8-11.1-13.3-10.6c-2.9,0.2-5.4,1.4-7.4,3.2l-3.7,3.2c-7.3-42.2-24.1-83.6-47.6-116.3
		C293.4,23.7,254.6,0,214.9,0c-39.7,0-78.5,23.7-109.3,66.8C82.2,99.6,65.4,141,58.1,183.2l-3.5-3c-2-1.9-4.6-3.1-7.6-3.3
		c-6.5-0.5-12.3,4.1-13.3,10.6c-2.4,15.9-3.7,31.8-3.7,47.1c0,59.7,18.7,109.8,54.2,144.9c32.9,32.6,79.3,50.5,130.7,50.5
		c51.4,0,97.8-17.9,130.7-50.5c35.5-35.1,54.2-85.2,54.2-144.9C399.9,219.2,398.6,203.3,396.2,187.4z M126,81.4
		C151.9,45,183.5,25,214.9,25c31.4,0,63,20,88.9,56.4c24.1,33.7,40.5,77.6,45.4,121.2l-20,17.3l-49-42.4c-4.7-4.1-11.7-4.1-16.3,0
		l-49,42.4l-49-42.4c-4.7-4.1-11.7-4.1-16.3,0l-49,42.4l-20-17.3C85.5,158.9,101.9,115.1,126,81.4L126,81.4z M328.1,361.6
		c-28.2,27.9-68.4,43.3-113.1,43.3c-44.7,0-84.9-15.4-113.1-43.3C71.2,331.3,55,287.3,55,234.5c0-6.7,0.3-13.4,0.8-20.3l36.6,31.7
		c4.7,4.1,11.7,4.1,16.3,0l49-42.4l49,42.4c4.7,4.1,11.7,4.1,16.3,0l49-42.4l49,42.4c4.7,4.1,11.7,4.1,16.3,0l36.6-31.7
		c0.5,6.8,0.8,13.6,0.8,20.3C374.8,287.3,358.7,331.3,328.1,361.6L328.1,361.6z"/>
</g>
</svg>
