<?xml version="1.0" encoding="utf-8"?>
<!-- Generator: Adobe Illustrator 24.0.0, SVG Export Plug-In . SVG Version: 6.00 Build 0)  -->
<svg version="1.1" id="Capa_1" xmlns="http://www.w3.org/2000/svg" xmlns:xlink="http://www.w3.org/1999/xlink" x="0px" y="0px"
	 viewBox="0 0 114.5 17" style="enable-background:new 0 0 114.5 17;" xml:space="preserve">
<style type="text/css">
	.st0{fill:#FFFFFF;}
</style>
<g id="Capa_2-2">
	<path class="st0" d="M102.6,6.8c0.5-0.3-0.1-0.7-0.7-1.1l-0.5,1.2L102.6,6.8z"/>
	<path class="st0" d="M99.9,6.6l-1.3,1.3l1-0.7c1.1,0.6-0.1,1.4-0.5,1.6C100.8,8.5,99.7,7.3,99.9,6.6z"/>
	<path class="st0" d="M97.3,7.6c-0.8,0-0.6,0.8-0.2,1.1S97.7,7.9,97.3,7.6z"/>
	<path class="st0" d="M43.8,4.6c0.2,0.2,0.5,0.3,0.4,0.5S44.6,4.7,43.8,4.6z"/>
	<path class="st0" d="M44.2,5.1L44.2,5.1z"/>
	<path class="st0" d="M61.6,15.3c1-0.6,1.6-0.2,2.5-0.5l0.5,1c1-0.3,0.4-0.9,1.2-1.4s2.8,0,3.2,0s-0.3,0.7-0.5,1s1.1-1.3,2.6-1.4
		v0.3c3.4-1.5,7.9-1.2,11.7-2.3c-0.3,0-0.2-0.2-0.3-0.4c4.1-0.5,8.8-0.7,11.9-3.2c-2.2,0.3-6-1.2-8.2,0.7c-0.8-0.7-2,0.4-2.4-0.7
		C80.6,8,79.3,9.9,76.2,10c-0.4-0.2-0.2-0.7-0.3-1.2l2.4-0.5l-1.5-0.4c0.6-0.5,2.2-0.2,2.4-1.1c-2.1,1.2-5.6,0.4-7.4,1.7
		c0.9,0.2,2-0.1,3,0s1.2,0.5,1.1,1c-2.9,1.5-5.4,0.9-8.4,1.4c-0.8,0.1-1.8,0-1.9-0.5s0.1-0.5,0.5-0.8s-0.1,1.8-1.7,1.6l0.2-1.7
		c-0.6,1.8-1.9-0.3-3,0.8c-0.4-0.7,0.3-1.1,1.2-1.2c-1-0.3-1.1,0.7-1.8,0.7l0.7-1.4c-0.8,1.4-1.5-0.3-2-0.8s0.4,1.5-0.6,1.4
		s-0.2-0.5-0.3-0.7s-0.4,1-1.1,1s0.4-0.7,0.5-1.2s-1,0.1-1.3-0.3s0,0.7-0.5,1.2s-0.2-1.7-0.7-2.7c1.1-0.7,2.4-0.9,3-1.3l-2,0.4
		c0.1-0.6-1.4-1-0.3-1.5c-2-0.6-4.5,0.1-6.4,0.5c0.3,0.2,0.6,0.3,0.6,0.7s-0.9-0.4-1.1-0.8s-0.7,1.4-1.1,2.1c-1.5-0.8-1.7-0.3-3-1.5
		v0.9c-1-0.8-1.1,0.7-2.1,0.1s0.3-0.4,0.7-0.7s-0.8-0.8-1.7-0.4L43,3.7c-0.7,0-1.7,0.3-1.3-0.6c-1.2,1.1-3.3,0.6-4.8,1.2l0.2-0.8
		c-0.8,1-2.8-0.1-3.5,1.1V4.2L32,5.3c-0.7-0.1-0.4-1.4-0.5-1S28.8,4.5,27.9,4c-0.3,1.1-1.9,1.3-3.2,1.4c-6.1-1-12.6-0.3-18.4,0.5
		C5.4,5.8,4.1,7,3,7.5c1.3,0.3,1.5-0.2,2.8-0.1S6.9,9,7.7,9.8l-0.3-1c1.3-0.7,0.8,0.6,1.9-0.3v1.6c0.4-0.8,1.3-0.1,1.6,0.3l0.4-1
		c0.8,0.6,1.3,0.9,1.5,1.9v-1c0.3,0.7,3.2,0.2,2.1,1.8c0.2-0.2,0.5-0.7,1-0.6v1c0.8-0.2,1.7-0.3,1.8,0.2s-0.5,0.7-0.7,1.1
		c3.2,0.3,0.9-3.2,3.7-3.1v0.6l0.8-0.6l0.7,0.8c1.1-2.1,4,0.4,5.7-0.7s1.5,1.2,2.8,1.1v-1c1,1.1,4.8,1.8,5.7,4.1
		c1-0.7-0.1-0.2-0.1-0.9c2-1,2,0.5,3,1.1s-0.9-0.4-0.2-1.1c1.8,0.8,1.5-1.2,3.7-0.5c0.2,0.6-0.6,0.4-0.9,0.8c1.6-1,4.5-0.4,6.8-0.6
		s6.6,1.1,9.6,1.9v-0.3c1.3,0.9,2.7,0,4.2,0.4L61.6,15.3z"/>
	<path class="st0" d="M79.8,5.7l-0.2-0.8l-1.4,0.6C78.7,6.1,79,5.5,79.8,5.7z"/>
	<polygon class="st0" points="79.6,8.3 80.3,7.8 79.1,7.9 	"/>
	<polygon class="st0" points="61.8,7.2 61.9,7.3 64.6,6.6 	"/>
	<path class="st0" d="M43.9,3.7c0.3-0.4,0.7-0.2,1-0.5l-1.2,0.4L43.9,3.7z"/>
	<path class="st0" d="M32,0c-0.5,1.5-0.9-0.1-0.4,1.4C32.4,1.1,31.8,0.5,32,0z"/>
	<path class="st0" d="M29.1,2.1c0.5,0.1,0.7-0.1,1-0.4S29.5,1.8,29.1,2.1z"/>
	<path class="st0" d="M2.8,9.8L2.8,9.8z"/>
	<path class="st0" d="M3.5,8.8L3.5,8.8z"/>
	<path class="st0" d="M2.2,9.8c0,0.4,0.1,0.8-0.2,1l-1.2-0.2c-0.3,0.1,0,0.4-0.1,0.6H0.1c-0.2,0.2,0,0.5,0.6,0.7S5.4,11.3,2.2,9.8z"
		/>
	<path class="st0" d="M4.7,9.5L3.2,9.2C3,9.4,2.7,9.6,2.8,9.8C3.4,9.8,4.1,9.7,4.7,9.5z"/>
	<path class="st0" d="M106.3,5.9c0,0.1-0.1,0.1-0.3-0.1L106.3,5.9c0-0.1,0-0.2,0.2-0.2c-1.2-0.3-2.4-0.5-3.6-0.6l-0.5,0.3
		c3.1,0.1,5.8,1.4,8.1,2.5C109.2,7,107.8,6.4,106.3,5.9z"/>
	<path class="st0" d="M102.1,6L102.1,6z"/>
	<path class="st0" d="M75.2,14.3c-1.6,0.1-3.2,0.4-4.7,0.8c3.2-0.3,6.6-0.5,9-0.9L75.2,14.3z"/>
	<path class="st0" d="M62.9,16.5c1.9,0.1,3.8-0.1,5.6-0.5l-5.1,0.3L62.9,16.5z"/>
	<path class="st0" d="M65.3,15.8c1.8,0,3.5-0.3,5.2-0.7L65.3,15.8z"/>
	<path class="st0" d="M104.1,6.9l2.5-0.3l0.9-0.5h-0.2l-4.2,0.3l-1.5,0.4L104.1,6.9z"/>
	<path class="st0" d="M106.6,6.6C104.9,7.6,108.4,6.6,106.6,6.6z"/>
	<path class="st0" d="M98,12.4L98,12.4z"/>
	<path class="st0" d="M82.2,9.6l3.3-0.3c-2.2,0.1-4.3,0.3-6.5,0.6h0.9C80.6,9.7,81.4,9.6,82.2,9.6z"/>
	<path class="st0" d="M107,11.8c-3.1,0.1-6.2,0.3-9.2,0.6c-5.7-0.2-11.3,0.1-16.9,1c-4.5,0.8-12.5,0.8-17.1,2.4h1.5l-1.9,0.5
		c-7.6,0.5-15.1,0.7-22.9,0.5c-1.2-0.1-2,0.2-3.2,0.2l-3.5-0.2l0,0l-14.5-0.6l-3.6-0.4L14,15.6l-1.8-0.3c-0.9-0.1-0.8-0.5-1.4-0.7
		c-2.2-0.9-3.9-1.5-6.4-2.3V12l-1-0.2c1.5-0.8,4.7-0.6,1.5-2h0.6c0.6,0,1.2-0.1,1.8-0.3L5.8,9.2C6,9.1,6.1,9,6,8.8h0.8
		c1.3-0.1,3.4-0.1,3.1-0.5S8.7,8,7.6,7.9L7.4,7.7c1.4,0.2,0.1-0.6,1-0.6l3.3,0.5L15,8.1l3.2,0.4c2.1,0.2,4.2,0.4,6.5,0.4h0.6
		l6.4,0.5h-0.4c1.7,0.3,3.5,0.4,5.2,0.3c2.1-0.1,4.2-0.3,6.4-0.3l6.6-0.3L56.6,9l7.1-0.5c-2,0.3-4,0.5-6,0.6l0,0
		c3.5,0,7.2,0.1,9.8-0.9l0.6,0.2c1.9,0,3.8-0.1,5.7-0.4c0-0.1,0.9-0.1,0.6-0.3l5.4-0.4c0.8,0,1.6-0.2,2.3-0.5
		c6.1-0.6,12.2-1.1,19-1.4l5.3,0.2l-7.7,0.5c-2.3-0.2-4.6-0.1-6.9,0.3l-1.4,0.3l8.3-0.6l4.5,0.3h-0.1l-3.5,0.2
		c-2.1-0.1-4.2-0.1-6.3,0.2h-0.6l-1.4,0.3l5.1-0.4l3.2-0.2l2,0.2h-0.3c-0.5,0.1-2.2,1.2-1.3,1.5h10.7c0.1,0.2-1.8,0.4-3.6,0.4
		c-1.2,0-2.3,0.1-3.5,0.3h1.2l-1.1,0.2h-2.6c-2.1,0.5-4.3,0.3-6.6,0.7s-3.2,0.6-4.9,1c0,0.2-0.9,0.1-0.6,0.3c-1.6,0-3.5,0-4.1,0.6
		h-0.6c-2.4,0-4.7,0.3-7,0.8l-2.5,0.2h2.5c2.2-0.1,4.2-0.4,6.3-0.6l0.7-0.2h0.6c1.9-0.3,4.2-0.4,5.8-0.7c3.3-0.2,6.5-0.2,9.8,0.1
		c-1.6,0-3.1,0.2-4.7,0.4l5.5-0.4h2.6l-1.6-0.2l3.2-0.2h7.2l-0.8,1.7c-2.1-2.4-4.9-4.1-8-4.9l0.5-0.3c2.6,0.6,4.8,2.1,6.8,3.3
		c-1.1-1-2.2-1.8-3.5-2.4h0.2c-1-0.4-2-0.7-3.1-1l1.4-0.3c0.8,0.1,1.5,0.4,2.2,0.7c1.8,1,3.5,2.2,4.8,3.8l1.3,1.3h-1.9
		c-1.6-0.1-3.3-0.2-4.9-0.1c-1.6-0.2-3.3-0.3-4.9-0.3l-4.8,0L107,11.8z M10.9,11.3h0.8C11.4,11.2,11.2,11.2,10.9,11.3z M17.6,12.5
		c-1.1-0.3-2.2-0.4-3.3-0.5l-3.8-0.4l0,0l3.4,0.5L17.6,12.5z M25.3,15.4L25.3,15.4z M60.5,13.3c-2.6,0.4-5.3,0.6-8,0.7
		c-0.9,0-1.7,0.4-2.9,0.4l-3.4,0.3l0.8,0.2c-2-0.1-3.2,0.5-5.2,0.2c0,0.1-0.3,0.3-0.6,0.3s-2.8-0.2-4,0c-1.4-0.1-2.7,0-4.1,0.1
		c-0.3-0.1-0.9,0.2-1.5,0.3h-0.3l5.6-0.2c2.2,0,4.3,0,6.3-0.2l6.1-0.4l2.6-0.4c2.6-0.4,5.7-0.3,7.4-1C59.7,13.5,60.1,13.4,60.5,13.3
		z M63.6,9c-3,0.4-6.1,0.6-9.1,0.6L49.3,10c-1.7,0.3-3.1,0.7-2.5,1.3c1.4-1,6.1-1,10.2-1S64.6,10.1,63.6,9z M87.5,6.9
		c-1.3,0.2-2.5,0.3-3.8,0.3L87.5,6.9z M75.3,11c3.7-0.7,7.7-0.9,11.4-1.3s6,0.2,8.6-0.4V9h-0.2l-2.7-0.3h-1.9l-1,0.2
		c-3.5,0-7,0.4-10.5,1L73.3,11H75.3z"/>
	<path class="st0" d="M101.7,11.4l3.8-0.2l2.9-0.2h4.4l-1.1,2c-2.1-2.4-5-4-8.1-4.7c-0.2,0.2-0.3,0.6-0.2,0.9
		c2.8,0.8,5.4,2.4,7.4,4.6l2-4l-5.5-0.3h-0.2c-2.3,0.4-6,0.1-8.9,0.5s-5.8,0.7-8.6,1.2h9.1L101.7,11.4z"/>
	<path class="st0" d="M68.5,16l3.3-0.2l8.8-1h-6.3C72.3,15.1,70.4,15.5,68.5,16z"/>
	<path class="st0" d="M82.9,14.5l-2.3,0.3l9.3-0.4c5-0.4,10-0.6,15.1-0.9h1.7C97.3,12.8,88,12.8,80,14.1h-0.5l11.3-0.5L82.9,14.5z"
		/>
	<path class="st0" d="M100.5,11.5L100.5,11.5z"/>
	<path class="st0" d="M92.4,8.8L92.4,8.8L89.5,9l-4,0.4C87.8,9.3,90.1,9.1,92.4,8.8z"/>
	<path class="st0" d="M84.4,6.4h-1.1l-0.5,0.2h0.8L84.4,6.4z"/>
	<path class="st0" d="M67.5,8.2l14.6-1.4l0.7-0.2c-3.1-0.1-6.2,0.2-9.3,0.7c-0.7,0.2-1.3,0.3-2,0.4l-7.8,0.8l3.7-0.3H67.5z"/>
	<path class="st0" d="M10,12.5c-1.2-0.6-2.6-0.6-3.8-0.2l-0.8-0.2c-1-0.1-1.9,0-2.8,0.4H0V5.7h0.8c1,0.5,2,0.9,3.1,1h0.7
		c2,1.9,3-1.3,5-1.3C9.5,7.6,9.7,9.8,10,12V12.5z"/>
	<path class="st0" d="M63.9,16.3l11.6-1.5c1.9-0.3,3.8-0.6,5.6-0.7s3.7,0.3,5.6,0.4c1.9,0.1,3.8-0.1,5.6-0.4
		c1.9-0.3,3.9-0.5,5.8-0.6c3.9-0.4,7.7-0.6,11.6-0.6v-3l-9.6,0.5c-1.9,0.1-1.9,3.1,0,3l9.6-0.5c1.9-0.1,1.9-3,0-3
		c-3.9,0-7.7,0.2-11.6,0.6c-1.9,0.1-3.9,0.3-5.8,0.6c-2,0.3-4.1,0.5-6.1,0.4c-1.8-0.4-3.7-0.5-5.5-0.4L75,11.8l-11.9,1.7
		c-0.8,0.1-1.2,1.1-1.1,1.8C62.2,16.1,63.1,16.5,63.9,16.3C63.9,16.3,63.9,16.3,63.9,16.3z"/>
	<path class="st0" d="M104.6,8.7c-3-0.4-6-0.5-9-0.4c-3,0.3-5.7,1.4-8.7,2s-6.2,0.5-9.3,0.8l-9.2,0.6L49.7,13
		c-6.2,0.4-12.4,0.9-18.6,0.4s-13.9-2.1-20.7-3.6c-1.9-0.4-2.7,2.5-0.8,2.9c6,1.5,12.1,2.6,18.3,3.4c6.2,0.6,12.5,0.7,18.8,0.1
		c12.5-0.8,25-1.6,37.5-2.6c1.7-0.1,3.3-0.3,4.9-0.8c1.7-0.4,3.4-1,5.1-1.3c3.4-0.6,6.9-0.2,10.4,0.2
		C106.5,11.9,106.5,8.9,104.6,8.7z"/>
</g>
</svg>
