<?xml version="1.0" encoding="utf-8"?>
<!-- Generator: Adobe Illustrator 24.0.0, SVG Export Plug-In . SVG Version: 6.00 Build 0)  -->
<svg version="1.1" id="Capa_1" xmlns="http://www.w3.org/2000/svg" xmlns:xlink="http://www.w3.org/1999/xlink" x="0px" y="0px"
	 viewBox="0 0 512 512" style="enable-background:new 0 0 512 512;" xml:space="preserve">
<style type="text/css">
	.st0{fill:#FFFFFF;}
</style>
<g id="Page-1">
	<g id="_x30_32---Fetal-Stage">
		<path id="Shape" class="st0" d="M256,0C114.6,0,0,114.6,0,256s114.6,256,256,256s256-114.6,256-256C511.8,114.7,397.3,0.2,256,0z
			 M256,494.9C124,494.9,17.1,388,17.1,256S124,17.1,256,17.1S494.9,124,494.9,256C494.8,387.9,387.9,494.8,256,494.9z"/>
		<path id="Shape_1_" class="st0" d="M256,34.1C133.5,34.3,34.3,133.5,34.1,256c0.2,122.4,99.4,221.6,221.9,221.9
			c122.5,0,221.9-99.3,221.9-221.9S378.5,34.1,256,34.1z M256,460.8c-106.3-0.1-194.9-81.6-203.9-187.5S116.8,72.1,221.6,54.1
			c-11.4,13.4-17.4,30.6-16.8,48.3c-1.7,20.3,8.7,39.7,26.5,49.6c9.8,6.8,16.2,11.3,16.2,27.2c0,27-13.7,32.9-29.4,39.7
			c-3,1.3-5.9,2.6-8.5,3.9c-20.2,11-32.8,32.1-33,55.1c-6.5,3.3-12.5,7.5-17.8,12.5c-5.4-6.6-7.4-15.4-5.4-23.7
			c6.5-26.1,17.6-27.7,17.3-27.7c4.7,0,8.5-3.8,8.5-8.5c0-4.7-3.8-8.5-8.5-8.5c-0.1,0-0.3,0-0.6,0c-6,0.2-59.2,4.3-59.2,68.3
			c0,81,89.3,102.4,136.5,102.4c31.8,0,56.2-25.3,64-34.4c17.2-1.5,81.1-11.8,81.1-85.1c0.5-18.3-6.5-35.9-19.4-48.9
			c-12.9-12.9-30.6-19.9-48.9-19.4c-22.4-0.6-42.5,13.5-49.7,34.6c-4.3,12.9-3.2,27,3.1,39c-3.4,2.1-7,3.6-10.9,4.5
			c-5.3-10.9-13.7-20-24.1-26.1c-7.3-4.4-16.7-2.4-21.6,4.5c-1.8,2.6-3,5.6-3.7,8.7c-7.9-0.6-15.8-0.1-23.5,1.6
			c2.1-14.2,10.7-26.6,23.2-33.6c2.4-1.2,5-2.3,7.7-3.5c16.8-7.2,39.7-17.1,39.7-55.4c0.7-17.1-8.4-33.1-23.5-41.2
			c-13.2-6.7-20.8-20.9-19.1-35.6c0-40.3,29.8-49.8,35-51.2c113.1,0.2,204.6,92.1,204.3,205.3S369.1,461,256,460.8L256,460.8z
			 M216.9,287.2c0.6,6.5,3.2,12.6,7.4,17.5c3.3,3.2,8.7,3.2,12-0.1c3.3-3.3,3.3-8.6,0.1-12c-3.4-6.4-4-13.8-1.9-20.7
			c0.2,0.1,0.4,0.2,0.5,0.2c11.3,5.7,19.2,23,21.3,29.2c1.4,3.8,5.2,6.2,9.3,5.6c4-0.6,7.1-3.9,7.3-8c5.3-1.6,10.4-3.9,15-6.8
			c1.7,1.7,3.6,3.3,5.5,4.8c2.4,1.8,5.7,2.2,8.5,1c2.8-1.2,4.8-3.8,5.1-6.8c0.4-3-0.9-6-3.4-7.8c-12.5-8.5-17.8-24.2-13-38.5
			c4.8-14.3,18.5-23.7,33.5-23c13.7-0.5,27.1,4.7,36.8,14.4c9.7,9.7,14.9,23,14.4,36.8c0,67.2-65.5,68.3-68.3,68.3
			c-2.7,0-5.2,1.3-6.8,3.4c-0.2,0.3-23.6,30.7-52.9,30.7c-1.2,0-119.5-1-119.5-85.3c-0.8-13.3,3.3-26.5,11.6-37
			c-1,2.8-1.9,5.9-2.8,9.3c-8.2,32.7,22.1,54.3,39.3,61.2c4.4,1.8,9.3-0.4,11.1-4.7s-0.4-9.3-4.7-11.1c-3.8-1.7-7.5-3.7-11-6
			C183.8,290.7,200.3,285.3,216.9,287.2L216.9,287.2z"/>
		<circle id="Oval" class="st0" cx="324.3" cy="247.5" r="8.5"/>
	</g>
</g>
</svg>
