<?xml version="1.0" encoding="utf-8"?>
<!-- Generator: Adobe Illustrator 24.0.0, SVG Export Plug-In . SVG Version: 6.00 Build 0)  -->
<svg version="1.1" id="Capa_1" xmlns="http://www.w3.org/2000/svg" xmlns:xlink="http://www.w3.org/1999/xlink" x="0px" y="0px"
	 viewBox="0 0 496 496" style="enable-background:new 0 0 496 496;" xml:space="preserve">
<style type="text/css">
	.st0{fill:#FFFFFF;}
</style>
<rect x="184" y="416" class="st0" width="16" height="16"/>
<rect x="112" y="416" class="st0" width="56" height="16"/>
<rect x="200" y="448" class="st0" width="88" height="16"/>
<rect x="248" y="416" class="st0" width="80" height="16"/>
<rect x="432" y="448" class="st0" width="16" height="16"/>
<rect x="352" y="448" class="st0" width="64" height="16"/>
<path class="st0" d="M272,296H376c66.3,0,120-53.8,120-120V168c0,0,0,0,0,0H376c-44.4,0-83.2,24.3-103.9,60.2c0,0-0.1,0-0.1,0V128
	c0,0,0,0,0,0H360c66.3,0,120-53.8,120-120V0c0,0,0,0,0,0H360c-51.1,0-94.7,32.1-112,77.2c0,0-0.1,0-0.1,0C230.7,32.1,187.1,0,136,0
	H16c0,0,0,0,0,0v8c0,39.3,18.8,75.4,50.7,97.9c8.2,6.3,27.6,16.3,29.4,17.3c0.1,0,0.1,0.1,0.1,0.1s0,0,0.1,0
	c2,0.3,36.9,5.7,46.8,4.7c0,0,0,0,0,0H224c0,0,0,0,0,0v156c0,0-0.1,0.1-0.1,0c-17.8-30.8-48.8-53-85.6-58.6L0,224c0,0,0,0,0,0v7.9
	c0,66.3,53.8,120,120,120H224c0,0,0,0,0,0V384c0,0,0,0,0,0H48c-26.5,0-48,25.1-48,56s21.5,56,48,56h391c32.2,0,58.6-26.8,56.9-58.9
	c-1.5-29.5-26-53.1-55.9-53.1H272c0,0,0,0,0,0L272,296C272,296,272,296,272,296z M376,184h103.6c0,0,0,0,0,0
	c-4.1,53.6-49,96-103.7,96h-96.1c0,0-0.1,0,0-0.1C309.5,245.6,370,224,440,224c0,0,0,0,0,0V208c0,0,0,0,0,0
	c-69.9,0-129.7,19.8-164.3,53c0,0-0.1,0-0.1,0C287.5,216.7,328,184,376,184z M220.4,317.1C185.8,283.9,126,264,56,264c0,0,0,0,0,0
	V280c0,0,0,0,0,0c69.9,0,130.5,21.6,160.1,55.9c0,0,0,0.1,0,0.1H120c-54.6,0-99.6-42.3-103.7-96c0,0,0,0,0,0h63.1l48.7,0.4
	C173,243.9,209.4,275.2,220.4,317.1C220.5,317.1,220.5,317.2,220.4,317.1z M240,128C240,128,240,128,240,128l16,0c0,0,0,0,0,0V384
	c0,0,0,0,0,0H240c0,0,0,0,0,0V128z M143.2,112C143.2,112,143.2,112,143.2,112c-0.1,0-18,2.8-40.5-6.5L75.6,91.8
	c-0.2,0-41-45.2-43.3-75.8c0,0,0,0,0,0H136c48,0,88.5,32.7,100.4,77c0,0,0,0.1-0.1,0C201.7,59.8,141.9,40,72,40c0,0,0,0,0,0V56
	c0,0,0,0,0,0c69.9,0,130.5,21.6,160.1,55.9c0,0,0,0.1,0,0.1H143.2z M48,480c-17.7,0-32-18-32-40s14.3-40,32-40s32,18,32,40
	S65.7,480,48,480z M440,400c22.4,0,40.5,18.5,40,40.9c-0.5,21.9-18.9,39.1-40.8,39.1H81.6c0,0-0.1,0,0-0.1
	C90.5,469.8,96,455.6,96,440s-5.5-29.8-14.4-39.9c0,0,0-0.1,0-0.1H440z M263.9,112C263.9,112,263.8,112,263.9,112
	c29.6-34.4,90.1-56,160-56c0,0,0,0,0,0V40c0,0,0,0,0,0c-69.9,0-129.7,19.8-164.3,53c0,0-0.1,0-0.1,0C271.5,48.7,312,16,360,16h103.6
	c0,0,0,0,0,0c-4.1,53.6-49,96-103.7,96H263.9z"/>
</svg>
