<?xml version="1.0" encoding="utf-8"?>
<!-- Generator: Adobe Illustrator 24.0.0, SVG Export Plug-In . SVG Version: 6.00 Build 0)  -->
<svg version="1.1" id="Layer_1" xmlns="http://www.w3.org/2000/svg" xmlns:xlink="http://www.w3.org/1999/xlink" x="0px" y="0px"
	 viewBox="0 0 349.5 501.6" style="enable-background:new 0 0 349.5 501.6;" xml:space="preserve">
<style type="text/css">
	.st0{fill:none;stroke:#000000;stroke-width:6;stroke-miterlimit:10;}
</style>
<path class="st0" d="M337.8,428.6c0,38.1-73,69-163,69c-90,0-163-30.9-163-69c0-29.2,42.9-54.2,103.5-64.2
	c31.7,52.7,59.5,93.1,59.5,93.1s27.8-40.4,59.5-93.1C294.9,374.4,337.8,399.4,337.8,428.6z"/>
<path class="st0" d="M174.8,5C91.2,5,24.3,72.9,24.3,155.5c0,47.7,48.9,139.1,90.9,208.9c31.7,52.7,59.5,93.1,59.5,93.1
	s27.8-40.4,59.5-93.1c42-69.8,90.9-161.3,90.9-208.9C325.2,72.9,258.4,5,174.8,5z M174.8,222.3c-36.6,0-66.9-30.3-66.9-66.9
	s30.3-66.9,66.9-66.9c36.6,0,66.9,30.3,66.9,66.9S211.3,222.3,174.8,222.3z"/>
</svg>
