<svg id="Capa_1" data-name="Capa 1" 
    xmlns="http://www.w3.org/2000/svg" viewBox="0 0 199.66 197.79">
    <defs>
        <style>.cls-1{fill:none;stroke:#000;stroke-miterlimit:10;stroke-width:4px;}</style>
    </defs>
    <title>icono-ticket</title>
    <path class="cls-1" d="M133.58,11.39v11.2h11.19l7.46,7.46V41.24h11.19l11.2,11.19v9.33h13L197,71.09l-125,125-9.33-9.33V175.55H47.77l-7.46-7.46V153.16H29.12l-7.47-7.46V134.51H10.46L3,127.05,126.12,3.93ZM78.89,51.16l14.2,14.19,54.82,54.83m-27.39-80.8L94.4,65.49m41-14.92L105.6,80.41m42.9-16.78L118.65,93.47m42.91-16.79-29.85,29.85M58.16,71.89l69,69M68.29,151.3A22.39,22.39,0,1,0,45.9,128.91,22.38,22.38,0,0,0,68.29,151.3Z" transform="translate(-0.17 -1.1)"/>
</svg>