<svg id="Capa_1" data-name="Capa 1" xmlns="http://www.w3.org/2000/svg" viewBox="0 0 1920 500"><defs><style>.cls-1{fill:none;}</style></defs><title>mision</title><g id="Capa_2" data-name="Capa 2"><path class="cls-1" d="M1920,8.18V500l-372.48-3.51s3.84-6.53-17.28-9c-19.2-2-15.36,7.53-15.36,7.53s-9.6-1-23-1-382.08,10-393.6,2c-11.52-7.53-7.68-3.52-3.84-5.53s-5.76,0-13.44-1-5.76-1-9.6-6.52-4.74-1.8-4.74-8.33c1.92-6.52,5.76-13.05,0-6.52s-3.84,12-9.6,15.56c-7.68,3.51-6.78-3.72-8.7.79-3.84,4.52-1.92,9-5.76,7.53-3.84-1-3.84-1-7.68-5.52s-19.09-19.9-15.25-22.91c-5.76,2-9.6,13-3.84,14.55s5.76,3.52,3.84,9-1.92,7.53,0,9c1.92,1,17.17,4.34-7.79-.17-23-4.52-30.72-5.53-53.76-2s-49.92,2-49.92,2l3.84-3h3.84s0-.5,1.92-1h-3.84c-21.12.5-42.24.5-65.28.5-188.16,1-378.24,2-566.4,3.52h0v1s-49.92,3.51-65.28-1c-13.44-3-217-2-217-2V1.66C44.16-3.86,422.4,6.17,422.4,6.17v.51l-71-1c15.36,1.51,28.8,2.51,44.16,3.52,9.6.5,17.28,1,26.88,1.5v3c73,2,144,1.51,217,1.51L862.08,13.7c132.48,1,240,1,251.52-.5,25-3,38.4-4,44.16-4,7.68,2,9.6,4,9.6,4S1138.67,36.09,1202,37.1s40.21-21.39,40.21-21.39,15.36-4,25-7.53c28.8,0,59.52.5,88.32.5l1.92.51,1.92-.51c30.72.51,59.52,1,78.72,1.51h0c11.52.5,19.2,1,25,1.5v-.5l20.42-1.88s1,15.8,8.69,21.32c5.76,5.52,9.6,13.05,9.6,12a36.69,36.69,0,0,1,5.76-2l3.84,4.51a19.18,19.18,0,0,0,7.68,2c3.84,0,0,1,3.84,3.51,3.84,2,1.92-4.51,1.92-4.51s13.44,0,17.28-1,7.68,1,17.28,1,9.6-1,17.28-4.52,3.84-3.51,9.6-2c7.68,1,5.76,0,7.68-2s-3.84-1,5.76-5.53,9.6-3.51,13.44-10,1.92-2,3.84-12,12.43,14.31,6.67,7.29-9.6-4.52-3.84-9l3.84-4.52c1.92.5,296.38,4.39,296.38,4.39" transform="translate(0 0)"/></g></svg>