<?xml version="1.0" encoding="utf-8"?>
<!-- Generator: Adobe Illustrator 24.0.0, SVG Export Plug-In . SVG Version: 6.00 Build 0)  -->
<svg version="1.1" id="Capa_1" xmlns="http://www.w3.org/2000/svg" xmlns:xlink="http://www.w3.org/1999/xlink" x="0px" y="0px"
	 viewBox="0 0 53.3 53.3" style="enable-background:new 0 0 53.3 53.3;" xml:space="preserve">
<style type="text/css">
	.st0{fill:#FFFFFF;}
</style>
<path class="st0" d="M53.3,16.7C52.5,8.1,46.4,1.9,38.8,1.9c-4.6,0-9,2.3-11.7,6.1c-0.2,0.3-0.5,0.3-0.6,0.3c-0.2,0-0.4,0-0.6-0.4
	c-2.7-3.9-6.8-6.1-11.4-6.1C6.9,1.9,0.9,8.1,0.1,16.7C0,17-0.2,19,0.5,22.3c1.1,4.7,3.7,8.9,7.4,12.3l18.6,16.9l18.9-16.9
	c1-0.9,1.8-1.8,2.6-2.8c0,0,0,0,0,0c2.3-2.8,3.9-6,4.7-9.5C53.6,19,53.3,17,53.3,16.7z M26.5,48.8L9.3,33.1c-0.4-0.3-0.7-0.7-1-1
	h3.1c0.4,0,0.7-0.2,0.9-0.6l4-8.9l5.1,12.8c0.1,0.4,0.5,0.6,0.9,0.6c0,0,0,0,0.1,0c0.4,0,0.7-0.2,0.9-0.5l4.2-7.5l2.1,3.5
	c0.2,0.4,0.6,0.5,1,0.5c0.4-0.1,0.7-0.4,0.8-0.8l2.9-13.7l2.2,13.6c0.1,0.5,0.5,0.8,1,0.8h7.8c-0.3,0.3-0.7,0.7-1,1L26.5,48.8z
	 M50.9,21.8c-0.7,3-2.1,5.8-4,8.3h-8.6L35.3,12c-0.1-0.5-0.5-0.8-1-0.8c-0.5,0-0.9,0.3-1,0.8l-3.5,16.5l-1.7-2.8
	c-0.2-0.3-0.5-0.5-0.9-0.5c-0.4,0-0.7,0.2-0.9,0.5l-4,7.2l-5.2-13c-0.1-0.4-0.5-0.6-0.9-0.6c-0.4,0-0.8,0.2-0.9,0.6l-4.7,10.4H6.5
	c-1.9-2.5-3.3-5.3-4-8.3C1.8,18.7,2.1,17,2.1,17l0-0.1c0.7-7.5,5.9-13,12.4-13c3.9,0,7.4,1.9,9.7,5.3c0.5,0.8,1.4,1.2,2.3,1.2
	c0.9,0,1.7-0.4,2.3-1.2c2.3-3.3,6.1-5.3,10-5.3c6.5,0,11.8,5.5,12.4,13.1C51.3,17,51.6,18.7,50.9,21.8z"/>
</svg>
