<svg id="evento" xmlns="http://www.w3.org/2000/svg" viewBox="0 0 151 151"><defs><style>.cls-1{fill:none;stroke:#ccc;stroke-miterlimit:10;stroke-dasharray:5.01 5.01;}.cls-2{fill:#fefefe;}.cls-3{fill:#f05f2a;}.cls-4{fill:#f0602c;}.cls-5{fill:#f16735;}</style></defs><title>servicio-evento</title><g id="circulo"><circle class="cls-1" cx="75.5" cy="75.5" r="75"/></g><g id="icono"><path class="cls-2" d="M64.5,47.5c-.1-1.2.3-2.2,1.6-2s1.5,1.8,1.6,3.1-.1,2.2-1.5,2.1S64.6,48.8,64.5,47.5Z" transform="translate(-0.5)"/><path class="cls-2" d="M66.6,54c1.1-.1,1.5.6,1.6,1.5s.5,4.1.7,6.1h-.1c.1,1,.2,2,.2,3a1.6,1.6,0,0,1-1.5,1.7c-1,.2-1.4-.5-1.6-1.4a69.5,69.5,0,0,1-.6-9.1C65.3,54.8,65.6,54.1,66.6,54Z" transform="translate(-0.5)"/><path class="cls-2" d="M123.4,99.1h-8.9c-1.8,0-2.4-.6-2.3-2.4s0-5.4,0-8.1c0-6.9-.1-13.7,0-20.6,0-2.5-.6-4-3.5-3.6h-1.6c-1.8.1-2-.8-2-2.2s.8-2.1,1.9-2.7a6.4,6.4,0,0,0,3-7.9,51.6,51.6,0,0,0-4.7-10.1c-1.1-2-2.3-2-3.4.1A79,79,0,0,0,97.5,51c-1.5,3.8-.5,6.6,3,8.8,1.6.9,1.6,2.1,1.5,3.5s-1.7,1.1-2.7,1.2c-4.2.2-4.2.2-4.3,4.5V96.2c0,1.3.5,2.9-1.9,2.9s-1.6-1.6-1.6-2.7c-.1-4.5-.1-9-.1-13.4-.1-1.5-.3-3-2.4-3s-2.5.6-2.7-1.1-.3-2.8,1.2-3.7a4.5,4.5,0,0,0,1.9-5.1,28.8,28.8,0,0,0-3.3-7.9c-1-1.8-2.2-1.7-3.1,0s-1.9,4.2-2.8,6.3-.9,5.2,1.6,6.9,1,2.3.9,3.5S81.1,80,80.3,80s-2.6.8-2.6,2.6c.1,4.7,0,9.3.1,13.9,0,1.7-.3,2.6-2.3,2.6h-15c-1.6,0-2.2-.6-2.2-2.1.1-3.2.1-6.3,0-9.5s.5-2.7,2.5-3.1c9.2-2,15.4-9.6,15.1-19s-1.1-16.1-1.7-24.1c-.1-2-.9-2.9-3.1-2.9-9,.1-18,0-27,0-4.3,0-4.4.1-4.7,4.5-.5,6.1-.8,12.3-1.4,18.3-1.4,12.2,3.7,20.2,15.4,23.3,1.2.4,1.7.8,1.7,2.1,0,3.3,0,6.6.1,10s-.5,2.5-2.5,2.5H28.8c-1.2,0-2.8-.3-2.8,1.5s1.5,1.6,2.7,1.6H42.3c1.1,0,2.3-.2,3,1s2.7,3.6,3.4,5.8l-1.7.3c-1,.3-2.2.5-2.1,1.8s1.2,1.5,2.3,1.5h62.4c1.8,0,2.5-.8,2.5-2.5s.2-3.9.1-5.8.4-2,1.9-2c3.1.1,6.3-.1,9.4-.2,1.2,0,2.5-.1,2.5-1.5S124.6,99.1,123.4,99.1ZM40.9,66c.5-6.5.8-12.9,1.5-19.4.4-4.8.6-4.9,5.5-5,7-.1,14.1.1,21.1.1,1.1,0,2,0,2.1,1.5.5,7.9,1.4,15.7,1.7,23.6,0,2.1-.8,2.8-2.9,2.8-4.4-.2-8.8-.1-13.1-.1s-8.4-.1-12.5.1S40.6,68.5,40.9,66Zm1.8,7.1H71c-3.2,5.2-7.3,8.2-13.2,8.5S46.3,79,42.7,73.1Zm11.2,32.2c-1.5,2.3-2,2.3-3.4.1l-1.6-2.8a5.5,5.5,0,0,1,3.5-.4C55.2,102.4,55.4,102.9,53.9,105.3Zm1.1,3.9c.6-.8,1.1-1.6,1.7-2.3a5.4,5.4,0,0,1,1.9,2.3C57.3,109.5,56.3,109.8,55,109.2Zm46.7-52.4c-1.3-1-2.1-2.2-1.5-3.8a23.6,23.6,0,0,1,3.4-7.4,23.4,23.4,0,0,1,3.4,7.6,3.1,3.1,0,0,1-1.7,3.7A2.9,2.9,0,0,1,101.7,56.8Zm-18.9,14a9,9,0,0,1,1.8-4A7.5,7.5,0,0,1,86.2,71a1.6,1.6,0,0,1-1.8,1.9A1.6,1.6,0,0,1,82.8,70.8ZM80.9,85.2c0-1.5.4-2.1,2-2.1,6.3.2,5-.6,5.2,4.9.1,1.1,0,2.2,0,3.3h.1c0,1.9-.1,3.9,0,5.8s-.5,1.9-1.9,2c-5.4.3-5.4.3-5.4-5C80.9,91.1,81,88.2,80.9,85.2ZM94,109.5c-8.9-.3-17.9-.2-26.9-.2-3.7,0-6.2-2-7.9-5.2-.5-.9-.7-1.7.9-1.8,14.1-.2,28.3-.3,42.9.1l-1.7,2.8C99.8,108.2,97.6,109.6,94,109.5Zm8.6-.3,3.7-5.9c.5-.7,1-1.1,1.8-.9s.8,1,.8,1.5C108.8,110.1,110.1,109.7,102.6,109.2ZM106.5,99c-2-.1-4,0-6.1.1s-2.1-.4-2.1-2V69.6c0-1.6.5-2.2,2-2.1H107c1.5-.1,1.9.6,1.9,1.9V83.3h0c0,4.5-.1,8.9,0,13.4C109,98.6,108.3,99.1,106.5,99Z" transform="translate(-0.5)"/><path class="cls-3" d="M64.5,47.5c-.1-1.2.3-2.2,1.6-2s1.5,1.8,1.6,3.1-.1,2.2-1.5,2.1S64.6,48.8,64.5,47.5Z" transform="translate(-0.5)"/><path class="cls-3" d="M66.6,54c1.1-.1,1.5.6,1.6,1.5s.5,4.1.7,6.1h-.1c.1,1,.2,2,.2,3a1.6,1.6,0,0,1-1.5,1.7c-1,.2-1.4-.5-1.6-1.4a69.5,69.5,0,0,1-.6-9.1C65.3,54.8,65.6,54.1,66.6,54Z" transform="translate(-0.5)"/><path class="cls-3" d="M123.4,99.1h-8.9c-1.8,0-2.4-.6-2.3-2.4s0-5.4,0-8.1c0-6.9-.1-13.7,0-20.6,0-2.5-.6-4-3.5-3.6h-1.6c-1.8.1-2-.8-2-2.2s.8-2.1,1.9-2.7a6.4,6.4,0,0,0,3-7.9,51.6,51.6,0,0,0-4.7-10.1c-1.1-2-2.3-2-3.4.1A79,79,0,0,0,97.5,51c-1.5,3.8-.5,6.6,3,8.8,1.6.9,1.6,2.1,1.5,3.5s-1.7,1.1-2.7,1.2c-4.2.2-4.2.2-4.3,4.5V96.2c0,1.3.5,2.9-1.9,2.9s-1.6-1.6-1.6-2.7c-.1-4.5-.1-9-.1-13.4-.1-1.5-.3-3-2.4-3s-2.5.6-2.7-1.1-.3-2.8,1.2-3.7a4.5,4.5,0,0,0,1.9-5.1,28.8,28.8,0,0,0-3.3-7.9c-1-1.8-2.2-1.7-3.1,0s-1.9,4.2-2.8,6.3-.9,5.2,1.6,6.9,1,2.3.9,3.5S81.1,80,80.3,80s-2.6.8-2.6,2.6c.1,4.7,0,9.3.1,13.9,0,1.7-.3,2.6-2.3,2.6h-15c-1.6,0-2.2-.6-2.2-2.1.1-3.2.1-6.3,0-9.5s.5-2.7,2.5-3.1c9.2-2,15.4-9.6,15.1-19s-1.1-16.1-1.7-24.1c-.1-2-.9-2.9-3.1-2.9-9,.1-18,0-27,0-4.3,0-4.4.1-4.7,4.5-.5,6.1-.8,12.3-1.4,18.3-1.4,12.2,3.7,20.2,15.4,23.3,1.2.4,1.7.8,1.7,2.1,0,3.3,0,6.6.1,10s-.5,2.5-2.5,2.5H28.8c-1.2,0-2.8-.3-2.8,1.5s1.5,1.6,2.7,1.6H42.3c1.1,0,2.3-.2,3,1s2.7,3.6,3.4,5.8l-1.7.3c-1,.3-2.2.5-2.1,1.8s1.2,1.5,2.3,1.5h62.4c1.8,0,2.5-.8,2.5-2.5s.2-3.9.1-5.8.4-2,1.9-2c3.1.1,6.3-.1,9.4-.2,1.2,0,2.5-.1,2.5-1.5S124.6,99.1,123.4,99.1ZM40.9,66c.5-6.5.8-12.9,1.5-19.4.4-4.8.6-4.9,5.5-5,7-.1,14.1.1,21.1.1,1.1,0,2,0,2.1,1.5.5,7.9,1.4,15.7,1.7,23.6,0,2.1-.8,2.8-2.9,2.8-4.4-.2-8.8-.1-13.1-.1s-8.4-.1-12.5.1S40.6,68.5,40.9,66Zm1.8,7.1H71c-3.2,5.2-7.3,8.2-13.2,8.5S46.3,79,42.7,73.1Zm11.2,32.2c-1.5,2.3-2,2.3-3.4.1l-1.6-2.8a5.5,5.5,0,0,1,3.5-.4C55.2,102.4,55.4,102.9,53.9,105.3Zm1.1,3.9c.6-.8,1.1-1.6,1.7-2.3a5.4,5.4,0,0,1,1.9,2.3C57.3,109.5,56.3,109.8,55,109.2Zm46.7-52.4c-1.3-1-2.1-2.2-1.5-3.8a23.6,23.6,0,0,1,3.4-7.4,23.4,23.4,0,0,1,3.4,7.6,3.1,3.1,0,0,1-1.7,3.7A2.9,2.9,0,0,1,101.7,56.8Zm-18.9,14a9,9,0,0,1,1.8-4A7.5,7.5,0,0,1,86.2,71a1.6,1.6,0,0,1-1.8,1.9A1.6,1.6,0,0,1,82.8,70.8ZM80.9,85.2c0-1.5.4-2.1,2-2.1,6.3.2,5-.6,5.2,4.9.1,1.1,0,2.2,0,3.3h.1c0,1.9-.1,3.9,0,5.8s-.5,1.9-1.9,2c-5.4.3-5.4.3-5.4-5C80.9,91.1,81,88.2,80.9,85.2ZM94,109.5c-8.9-.3-17.9-.2-26.9-.2-3.7,0-6.2-2-7.9-5.2-.5-.9-.7-1.7.9-1.8,14.1-.2,28.3-.3,42.9.1l-1.7,2.8C99.8,108.2,97.6,109.6,94,109.5Zm8.6-.3,3.7-5.9c.5-.7,1-1.1,1.8-.9s.8,1,.8,1.5C108.8,110.1,110.1,109.7,102.6,109.2ZM106.5,99c-2-.1-4,0-6.1.1s-2.1-.4-2.1-2V69.6c0-1.6.5-2.2,2-2.1H107c1.5-.1,1.9.6,1.9,1.9V83.3h0c0,4.5-.1,8.9,0,13.4C109,98.6,108.3,99.1,106.5,99Z" transform="translate(-0.5)"/><path class="cls-2" d="M66.2,50.7c-2-.1-1.6-1.9-1.7-3.2s.3-2.2,1.6-2,1.5,1.8,1.6,3.1S67.6,50.8,66.2,50.7Z" transform="translate(-0.5)"/><path class="cls-2" d="M69,64.6a1.6,1.6,0,0,1-1.5,1.7c-1,.2-1.4-.5-1.6-1.4a69.5,69.5,0,0,1-.6-9.1c0-1,.3-1.7,1.3-1.8s1.5.6,1.6,1.5.5,4.1.7,6.1h-.1C68.9,62.6,69,63.6,69,64.6Z" transform="translate(-0.5)"/><path class="cls-4" d="M69,64.6a1.6,1.6,0,0,1-1.5,1.7c-1,.2-1.4-.5-1.6-1.4a69.5,69.5,0,0,1-.6-9.1c0-1,.3-1.7,1.3-1.8s1.5.6,1.6,1.5.5,4.1.7,6.1h-.1C68.9,62.6,69,63.6,69,64.6Z" transform="translate(-0.5)"/><path class="cls-5" d="M66.2,50.7c-2-.1-1.6-1.9-1.7-3.2s.3-2.2,1.6-2,1.5,1.8,1.6,3.1S67.6,50.8,66.2,50.7Z" transform="translate(-0.5)"/></g></svg>