<svg id="reserva" xmlns="http://www.w3.org/2000/svg" viewBox="0 0 151 151"><defs><style>.cls-1,.cls-4,.cls-5{fill:none;stroke-miterlimit:10;}.cls-1{stroke:#ccc;stroke-dasharray:5.01 5.01;}.cls-2{fill:#f05f2b;}.cls-3{fill:#f05f2a;}.cls-4,.cls-5{stroke:#f05f2a;}.cls-4{stroke-width:3px;}.cls-5{stroke-width:4px;}</style></defs><title>servicio-reserva</title><g id="circulo"><circle class="cls-1" cx="75.5" cy="75.5" r="75"/></g><g id="icono"><path class="cls-2" d="M39.5,48.2c0-1.1.1-2.3-1.3-2.3s-1.7,1-1.7,2.2c.1,3.3.1,6.5,0,9.7,0,.8.3,1.9-1,1.9s-1-1.1-1.1-1.8c0-3.2,0-6.3-.1-9.5,0-1.1.2-2.4-1.3-2.5s-1.7,1.4-1.7,2.5c-.1,3.3-.2,6.5-.2,9.7-.1.6.2,1.4-.8,1.5s-.9-.8-1-1.5c0-3.3-.1-6.7-.2-10,0-1-.1-2.2-1.5-2.2S26,47,26,48.2c0,5.1,0,10.2.1,15.3a4.3,4.3,0,0,0,3.2,4.4c1.6.4,1.8,1.3,1.8,2.8V86.2h0c0,4.7,0,9.4.1,14.2,0,1.1,0,2.2.1,3.3a1.5,1.5,0,0,0,1.7,1.4,1.3,1.3,0,0,0,1.3-1.5v-1.9c.1-10.3.1-20.6.1-30.8,0-1.6.2-2.6,2-3.1a4.2,4.2,0,0,0,3.1-4.6Zm-6.8,17H31.6c-.9-.1-2.1-.3-2.1-1.4s1.4-.6,2.1-.8a8.5,8.5,0,0,1,1.6,0c.8.4,2.8-.7,2.8.7S34.1,65.1,32.7,65.2Z" transform="translate(-0.5)"/><path class="cls-3" d="M126,76.4V50.3c0-2.7-1.4-4.4-3.4-4.5s-3.5,1.5-3.8,4.3-.6,6-.8,9.1c-.7,7.2-1.4,14.5-2,21.8-.3,4.1.9,5.7,5,6.5,1.5.3,1.6,1.2,1.6,2.4,0,4,0,8.1.1,12.2,0,1.3-.2,2.9,1.6,2.9s1.7-1.5,1.7-2.8V76.4Zm-4.7,8a2,2,0,0,1-2-2.4c.4-5.2.8-10.5,1.3-15.7s.7-7.7,1.1-11.6c0-.1.1-.2.2-.3a5.4,5.4,0,0,1,.7-1.3V82.2C122.6,83,123.1,84.4,121.3,84.4Z" transform="translate(-0.5)"/><path class="cls-4" d="M93,75.6A16.1,16.1,0,0,1,76.8,91.8a16.3,16.3,0,1,1,0-32.6A16.1,16.1,0,0,1,93,75.6Z" transform="translate(-0.5)"/><path class="cls-5" d="M99.8,75.6A23.1,23.1,0,1,1,76.9,52.5,23,23,0,0,1,99.8,75.6Z" transform="translate(-0.5)"/><path class="cls-5" d="M111.9,75.7a35,35,0,0,1-34.9,35,35.2,35.2,0,1,1-.1-70.4A34.8,34.8,0,0,1,111.9,75.7Z" transform="translate(-0.5)"/></g></svg>