<svg id="Capa_2" data-name="Capa 2" 
    xmlns="http://www.w3.org/2000/svg" viewBox="0 0 119.9 150.8">
    <defs>
        <style>.cls-1{fill:#fff;}</style>
    </defs>
    <title>logozoo</title>
    <path class="cls-1" d="M17,36.3S4.5,31.8,26.6,13.4c-3,9.7-3.3,8.7-3.8,13.6S23.5,35.9,17,36.3Z" transform="translate(-0.8 -0.9)"/>
    <path class="cls-1" d="M63.9,4.2S36.5,16,46.5,24.6c0,0,5.2,4.6,9-7.9C55.5,16.7,61.2,6.6,63.9,4.2Z" transform="translate(-0.8 -0.9)"/>
    <path class="cls-1" d="M39.5,35.1s12.2,2,12.2,14.5S38.8,66.4,38.8,66.4,31.3,68.2,30.9,46C30.9,46,28.6,35.1,39.5,35.1Z" transform="translate(-0.8 -0.9)"/>
    <path class="cls-1" d="M83.9.9s12,22.7,0,28c0,0-9.5,2-2-10.3C81.9,18.6,85.5,6.5,83.9.9Z" transform="translate(-0.8 -0.9)"/>
    <path class="cls-1" d="M76.9,38.4S96.9,52,65.7,69.9c0,0-9.2,4.8-4.6-15.8,1.9-8.5,2.5-14.1,7-16.8S76.9,38.4,76.9,38.4Z" transform="translate(-0.8 -0.9)"/>
    <path class="cls-1" d="M106.8,16.3s1.5,14.1-4.7,21.8c0,0-3.1,6.6,3.3,6.7S113.2,30.7,106.8,16.3Z" transform="translate(-0.8 -0.9)"/>
    <path class="cls-1" d="M115.9,54.4s.8,18.2-4.7,21.8c0,0-2.1,5.8,3.3,5.9S124.6,72.9,115.9,54.4Z" transform="translate(-0.8 -0.9)"/>
    <path class="cls-1" d="M92.5,55.3s-12.8,6.9-15.3,25,23.4-.4,25.1-8.1-1.5-16.7-9.4-16.9" transform="translate(-0.8 -0.9)"/>
    <path class="cls-1" d="M100.2,92.8S83.9,101.3,85.3,117c0,0,1.9,3.1,8.6,1.9s18.6-6.3,15.7-16.7S100.2,92.8,100.2,92.8Z" transform="translate(-0.8 -0.9)"/>
    <path class="cls-1" d="M61.8,86.7s-21.2-17-47.6-.8c0,0-17.8,9.9,4.1,20.1,9.7,4.5,14.6,3.4,16.3,15.5s7.1,31.6,26.4,30.1c0,0,17.3-3.7,17.3-36.3C78.3,115.3,79.1,99.4,61.8,86.7Z" transform="translate(-0.8 -0.9)"/>
    <path class="cls-1" d="M5.2,49.9S.5,53.6.9,55.7,5.3,71.2,20.9,77c0,0,5.3.7,5.3-14.5S10.4,44.7,5.2,49.9Z" transform="translate(-0.8 -0.9)"/>
</svg>