<svg id="logo" 
    xmlns="http://www.w3.org/2000/svg" viewBox="0 0 140 118.8">
    <defs>
        <style>.cls-1{fill:#fff;}</style>
    </defs>
    <title>logo-presto-mimmo</title>
    <g id="pilar">
        <path class="cls-1" d="M103.9,71.7V45.9c0-3-1.1-4.2-3.8-4.2H40c-2.7,0-3.9,1.4-3.9,4.2V80.6h0c0,11.5,0,23-.1,34.5a4.6,4.6,0,0,0,1.9,4c1.3.8,2.7,0,4-.9,4.3-3,8.7-5.9,13-8.7a2.3,2.3,0,0,0,1.3-1.9c.1-3.1.5-6.3.6-9.5.2-12.3.3-24.6.4-36.9,0-1.9,1-2.3,2.7-2.3s2.3.7,2.3,2.4c-.1,13.1-.1,26.3-.1,39.4a3,3,0,0,0,4.7,2.7l14.4-9.8a4.7,4.7,0,0,0,2.1-4.3c-.1-9.3-.1-18.6-.1-28,0-1.5.2-2.5,2-2.4s3.1.5,3.1,2.5V85.9c.1,2.4,1.8,3.3,3.9,2.2s6.1-3.3,9.2-4.8a3.8,3.8,0,0,0,2.5-3.9Zm-5.4,6.7c0,.2-.3.3-.4.4s-2.9,2.6-4.4,1.8-.4-2.7-.4-4.2c0-5-.1-10.1.1-15.2s-1.7-6.7-5.6-7.5-7.7.4-9.4,3.7a8.7,8.7,0,0,0-.7,3.9V87.5a3,3,0,0,1-1.6,3.1c-2.4,1.4-4.6,3-6.9,4.5-.4.3-.7.9-1.3.6s-.6-1-.6-1.6c.1-9.8.1-19.6.1-29.4,0-1.9,0-3.8-.1-5.7a6,6,0,0,0-4.6-5.1,9.9,9.9,0,0,0-4.9-.4c-4.5,1.1-5.9,4.5-6,8.8,0,13.8-.4,27.7-.5,41.6a3.2,3.2,0,0,1-1.6,2.8,68.4,68.4,0,0,0-7.2,4.7c-.7-.4-.5-1-.5-1.5V48.5c0-1,0-1.7,1.3-1.7,17.9.1,35.7,0,53.6,0l.7.3c.7.1.9.6.9,1.2Z" transform="translate(0 -0.6)"/>
        <path class="cls-1" d="M134.6,4.3c-.4-3.6-.1-3.7-3.7-3.7H7.7a1.9,1.9,0,0,0-1.9.9c-1,1.8-.5,7.4,1,9s5.9,5.7,8.7,8.7a4.9,4.9,0,0,0,4,1.8H120.6a5.2,5.2,0,0,0,4.1-1.8,65.7,65.7,0,0,1,5.9-5.9A9.5,9.5,0,0,0,134.6,4.3Zm-6.8,4.2-5.7,5.7a4.5,4.5,0,0,1-3.6,1.6H31.6a59.3,59.3,0,0,0-7.3.1,8.5,8.5,0,0,1-8-3.2A60.5,60.5,0,0,0,12,8.1c-.5-.5-1.2-1.1-.8-1.9s1.2-.5,1.8-.5H126.7c.8,0,2-.4,2.3.6S128.5,7.9,127.8,8.5Z" transform="translate(0 -0.6)"/>
        <path class="cls-1" d="M15.3,43.8h0Z" transform="translate(0 -0.6)"/>
        <path class="cls-1" d="M103.9,71.7V45.9c0-3-1.1-4.2-3.8-4.2H40c-2.7,0-3.9,1.4-3.9,4.2V80.6h0c0,11.5,0,23-.1,34.5a4.6,4.6,0,0,0,1.9,4c1.3.8,2.7,0,4-.9,4.3-3,8.7-5.9,13-8.7a2.3,2.3,0,0,0,1.3-1.9c.1-3.1.5-6.3.6-9.5.2-12.3.3-24.6.4-36.9,0-1.9,1-2.3,2.7-2.3s2.3.7,2.3,2.4c-.1,13.1-.1,26.3-.1,39.4a3,3,0,0,0,4.7,2.7l14.4-9.8a4.7,4.7,0,0,0,2.1-4.3c-.1-9.3-.1-18.6-.1-28,0-1.5.2-2.5,2-2.4s3.1.5,3.1,2.5V85.9c.1,2.4,1.8,3.3,3.9,2.2s6.1-3.3,9.2-4.8a3.8,3.8,0,0,0,2.5-3.9Zm-5.4,6.7c0,.2-.3.3-.4.4s-2.9,2.6-4.4,1.8-.4-2.7-.4-4.2c0-5-.1-10.1.1-15.2s-1.7-6.7-5.6-7.5-7.7.4-9.4,3.7a8.7,8.7,0,0,0-.7,3.9V87.5a3,3,0,0,1-1.6,3.1c-2.4,1.4-4.6,3-6.9,4.5-.4.3-.7.9-1.3.6s-.6-1-.6-1.6c.1-9.8.1-19.6.1-29.4,0-1.9,0-3.8-.1-5.7a6,6,0,0,0-4.6-5.1,9.9,9.9,0,0,0-4.9-.4c-4.5,1.1-5.9,4.5-6,8.8,0,13.8-.4,27.7-.5,41.6a3.2,3.2,0,0,1-1.6,2.8,68.4,68.4,0,0,0-7.2,4.7c-.7-.4-.5-1-.5-1.5V48.5c0-1,0-1.7,1.3-1.7,17.9.1,35.7,0,53.6,0l.7.3c.7.1.9.6.9,1.2Z" transform="translate(0 -0.6)"/>
        <path class="cls-1" d="M128.2,61.1a14.7,14.7,0,0,1-18.4-7.9c-2.9-7.3-.7-13.9,5.8-17.4s11.8-.7,15,5.3-.8,11.1-6.2,12.2c-3.4.7-7.8-2.5-7.8-5.9a4.9,4.9,0,0,1,2.9-4.3,3.2,3.2,0,0,1,4.1.6c.5.5,1.1,1.3,1.8.6s-.1-1.3-.5-1.9c-2.7-3.9-8.1-2-9.9,1.2a7.2,7.2,0,0,0,.6,8.7c2.7,3.3,6.2,5,10.5,3.6a11,11,0,0,0,8-11.1c.1-5.6-3.1-10-8.4-12.1a9.8,9.8,0,0,0-4.4-.8c-34,0-68.1.1-102.1-.1A13.3,13.3,0,0,0,6.4,48.5c1,3.5,5.8,7.6,9.2,7.8a10.1,10.1,0,0,0,10.1-6.1c1.8-4.1-1.4-10.5-6.9-9.9a4.6,4.6,0,0,0-3.5,2c-.4.5-.3,1.1-.4,1.7a.4.4,0,0,0-.1.3h0c-.1.4-.2.7,0,1a.1.1,0,0,0,.1.1l.3-.5a2.6,2.6,0,0,1,1.6-1.5,4,4,0,0,1,5.2.5,5.1,5.1,0,0,1,.9,5.4,6,6,0,0,1-6.3,4,7.7,7.7,0,0,1-6.8-4.5C6.9,43.1,11,37.2,15.9,35.2s11.2,1.2,13.6,5c3.7,5.9,3,12.9-3.2,18.1-4.3,3.6-9.1,4.2-14.1,2.9A14.4,14.4,0,0,1,4.5,56,19.1,19.1,0,0,1,0,44.6c-.2-6.4,5.3-14.3,11.3-16.7a26.7,26.7,0,0,1,10.1-2h99c8.3,0,15.3,4.5,18.3,12.4S138.4,57.6,128.2,61.1Z" transform="translate(0 -0.6)"/>
        <path class="cls-1" d="M134.6,4.3c-.4-3.6-.1-3.7-3.7-3.7H7.7a1.9,1.9,0,0,0-1.9.9c-1,1.8-.5,7.4,1,9s5.9,5.7,8.7,8.7a4.9,4.9,0,0,0,4,1.8H120.6a5.2,5.2,0,0,0,4.1-1.8,65.7,65.7,0,0,1,5.9-5.9A9.5,9.5,0,0,0,134.6,4.3Zm-6.8,4.2-5.7,5.7a4.5,4.5,0,0,1-3.6,1.6H31.6a59.3,59.3,0,0,0-7.3.1,8.5,8.5,0,0,1-8-3.2A60.5,60.5,0,0,0,12,8.1c-.5-.5-1.2-1.1-.8-1.9s1.2-.5,1.8-.5H126.7c.8,0,2-.4,2.3.6S128.5,7.9,127.8,8.5Z" transform="translate(0 -0.6)"/>
        <path class="cls-1" d="M15.3,43.8Z" transform="translate(0 -0.6)"/>
    </g>
</svg>